<svg width="110" height="72" fill="none" xmlns="http://www.w3.org/2000/svg"><rect width="110" height="72" rx="15" fill="#19191A"/><path d="M35.353 56H27l17.772-41h6.456L69 56h-8.353l-3.258-7.731H38.611L35.353 56zm18.956-14.936l-6.28-14.877-6.338 14.877H54.31z" fill="#FE8A01" filter="url(#filter0_di)"/><path stroke="#fff" stroke-width="1.9" d="M59.95 16.95h25.1v25.1h-25.1z"/><path fill="#005FF9" d="M56 14h7v7h-7zm0 25h7v7h-7zm26-25h7v7h-7zm0 25h7v7h-7zm-6.374-3.72a6.062 6.062 0 0 1-1.281 1.36 8.67 8.67 0 0 1-1.653.952c-.653.272-1.417.408-2.294.408a6.38 6.38 0 0 1-2.227-.374 5.775 5.775 0 0 1-1.687-1.054 4.804 4.804 0 0 1-1.113-1.496A4.698 4.698 0 0 1 65 33.24c0-1.36.427-2.482 1.282-3.366.855-.907 2.002-1.485 3.44-1.734l5.904-1.02c0-.861-.314-1.587-.944-2.176-.607-.59-1.417-.884-2.429-.884-.652 0-1.237.125-1.754.374a8.05 8.05 0 0 0-1.316.748 6.55 6.55 0 0 0-1.147 1.088l-2.193-2.21c.45-.567.99-1.077 1.62-1.53.54-.385 1.203-.737 1.99-1.054.787-.317 1.72-.476 2.8-.476 1.012 0 1.934.159 2.766.476a6.19 6.19 0 0 1 2.126 1.326 5.832 5.832 0 0 1 1.349 2.006c.337.77.506 1.598.506 2.482v10.37h-3.374v-2.38zm0-5.44l-4.722.85c-.855.159-1.496.442-1.923.85-.405.385-.607.839-.607 1.36 0 .59.236 1.11.708 1.564.472.43 1.136.646 1.99.646.63 0 1.215-.113 1.754-.34a4.43 4.43 0 0 0 1.451-1.02c.427-.43.754-.93.978-1.496a4.86 4.86 0 0 0 .371-1.904v-.51z"/><path fill="#3A3C43" d="M22 21h10v10H22z"/><path fill="#707482" d="M22 31h10v10H22z"/><path fill="#AFB3BF" d="M22 41h10v10H22z"/><defs><filter id="filter0_di" x="25" y="14" width="46" height="45" filterUnits="userSpaceOnUse" color-interpolation-filters="sRGB"><feFlood flood-opacity="0" result="BackgroundImageFix"/><feColorMatrix in="SourceAlpha" values="0 0 0 0 0 0 0 0 0 0 0 0 0 0 0 0 0 0 127 0"/><feOffset dy="1"/><feGaussianBlur stdDeviation="1"/><feColorMatrix values="0 0 0 0 0.4625 0 0 0 0 0 0 0 0 0 0 0 0 0 0.2 0"/><feBlend in2="BackgroundImageFix" result="effect1_dropShadow"/><feBlend in="SourceGraphic" in2="effect1_dropShadow" result="shape"/><feColorMatrix in="SourceAlpha" values="0 0 0 0 0 0 0 0 0 0 0 0 0 0 0 0 0 0 127 0" result="hardAlpha"/><feOffset dy="1"/><feGaussianBlur stdDeviation=".5"/><feComposite in2="hardAlpha" operator="arithmetic" k2="-1" k3="1"/><feColorMatrix values="0 0 0 0 1 0 0 0 0 1 0 0 0 0 1 0 0 0 0.15 0"/><feBlend in2="shape" result="effect2_innerShadow"/></filter></defs></svg>