<svg width="171" height="28" fill="none" xmlns="http://www.w3.org/2000/svg"><path d="M18.21 14c0 2.324-1.89 4.21-4.21 4.21-2.32 0-4.21-1.89-4.21-4.21 0-2.32 1.89-4.21 4.21-4.21 2.32 0 4.21 1.886 4.21 4.21zM14 0C6.281 0 0 6.281 0 14s6.281 14 14 14c2.828 0 5.553-.84 7.887-2.436l.042-.028-1.886-2.193-.032.023A11.108 11.108 0 0 1 14 25.13C7.863 25.13 2.87 20.137 2.87 14 2.87 7.863 7.863 2.87 14 2.87c6.137 0 11.13 4.993 11.13 11.13 0 .793-.089 1.6-.261 2.394-.35 1.447-1.363 1.885-2.124 1.83-.765-.061-1.656-.607-1.661-1.937V14c0-3.906-3.178-7.08-7.08-7.08-3.9 0-7.083 3.174-7.083 7.08A7.084 7.084 0 0 0 14 21.08a7.024 7.024 0 0 0 5.017-2.091 4.555 4.555 0 0 0 3.873 2.104c1.017 0 2.025-.34 2.842-.961.84-.64 1.465-1.559 1.81-2.665.057-.177.16-.588.16-.592l.004-.014c.205-.882.294-1.769.294-2.861 0-7.719-6.281-14-14-14z" fill="#E5E5E5"/><path d="M18.21 14c0 2.324-1.89 4.21-4.21 4.21-2.32 0-4.21-1.89-4.21-4.21 0-2.32 1.89-4.21 4.21-4.21 2.32 0 4.21 1.886 4.21 4.21zM14 0C6.281 0 0 6.281 0 14s6.281 14 14 14c2.828 0 5.553-.84 7.887-2.436l.042-.028-1.886-2.193-.032.023A11.108 11.108 0 0 1 14 25.13C7.863 25.13 2.87 20.137 2.87 14 2.87 7.863 7.863 2.87 14 2.87c6.137 0 11.13 4.993 11.13 11.13 0 .793-.089 1.6-.261 2.394-.35 1.447-1.363 1.885-2.124 1.83-.765-.061-1.656-.607-1.661-1.937V14c0-3.906-3.178-7.08-7.08-7.08-3.9 0-7.083 3.174-7.083 7.08A7.084 7.084 0 0 0 14 21.08a7.024 7.024 0 0 0 5.017-2.091 4.555 4.555 0 0 0 3.873 2.104c1.017 0 2.025-.34 2.842-.961.84-.64 1.465-1.559 1.81-2.665.057-.177.16-.588.16-.592l.004-.014c.205-.882.294-1.769.294-2.861 0-7.719-6.281-14-14-14z" fill="#1D1D1D"/><path d="M39.857 9.255c1.774 0 2.94 1.354 2.94 3.386v7.5h2.663v-7.604c0-1.876 1.394-3.282 3.194-3.282 1.775 0 2.941 1.354 2.941 3.386v7.5h2.662v-7.604c0-3.542-2.18-6.016-5.45-6.016-1.826 0-3.424.781-4.488 2.057-.938-1.302-2.333-2.057-4.006-2.057-1.42 0-2.738.547-3.65 1.562V6.86H34v13.282h2.662v-7.604c0-1.876 1.395-3.282 3.195-3.282z" fill="#E5E5E5"/><path d="M39.857 9.255c1.774 0 2.94 1.354 2.94 3.386v7.5h2.663v-7.604c0-1.876 1.394-3.282 3.194-3.282 1.775 0 2.941 1.354 2.941 3.386v7.5h2.662v-7.604c0-3.542-2.18-6.016-5.45-6.016-1.826 0-3.424.781-4.488 2.057-.938-1.302-2.333-2.057-4.006-2.057-1.42 0-2.738.547-3.65 1.562V6.86H34v13.282h2.662v-7.604c0-1.876 1.395-3.282 3.195-3.282z" fill="#1D1D1D"/><path d="M63.33 20.48c1.723 0 3.422-.73 4.385-1.798v1.459h2.662V6.859h-2.662v1.459C66.752 7.25 65.053 6.52 63.33 6.52c-3.575 0-6.668 3.15-6.668 6.979 0 3.828 3.093 6.98 6.668 6.98zm.303-2.735c-2.358 0-4.107-1.771-4.107-4.245s1.75-4.245 4.107-4.245c2.358 0 4.108 1.771 4.108 4.245s-1.75 4.245-4.108 4.245z" fill="#E5E5E5"/><path d="M63.33 20.48c1.723 0 3.422-.73 4.385-1.798v1.459h2.662V6.859h-2.662v1.459C66.752 7.25 65.053 6.52 63.33 6.52c-3.575 0-6.668 3.15-6.668 6.979 0 3.828 3.093 6.98 6.668 6.98zm.303-2.735c-2.358 0-4.107-1.771-4.107-4.245s1.75-4.245 4.107-4.245c2.358 0 4.108 1.771 4.108 4.245s-1.75 4.245-4.108 4.245z" fill="#1D1D1D"/><path d="M76.453 6.86H73.79v13.28h2.662V6.86zm.507-3.985c0-.964-.786-1.875-1.826-1.875-.989 0-1.85.833-1.85 1.875 0 1.068.861 1.901 1.85 1.901 1.04 0 1.826-.911 1.826-1.901z" fill="#E5E5E5"/><path d="M76.453 6.86H73.79v13.28h2.662V6.86zm.507-3.985c0-.964-.786-1.875-1.826-1.875-.989 0-1.85.833-1.85 1.875 0 1.068.861 1.901 1.85 1.901 1.04 0 1.826-.911 1.826-1.901z" fill="#1D1D1D"/><path d="M82.667 1.39h-2.662v18.75h2.662V1.39z" fill="#E5E5E5"/><path d="M82.667 1.39h-2.662v18.75h2.662V1.39z" fill="#1D1D1D"/><path d="M98.338 20.48c1.724 0 3.423-.73 4.386-1.798v1.459h2.662V1.39h-2.662v6.927c-.963-1.068-2.662-1.797-4.386-1.797-3.575 0-6.668 3.15-6.668 6.979 0 3.828 3.093 6.98 6.668 6.98zm.304-2.735c-2.358 0-4.107-1.771-4.107-4.245s1.75-4.245 4.107-4.245c2.358 0 4.108 1.771 4.108 4.245s-1.75 4.245-4.108 4.245z" fill="#E5E5E5"/><path d="M98.338 20.48c1.724 0 3.423-.73 4.386-1.798v1.459h2.662V1.39h-2.662v6.927c-.963-1.068-2.662-1.797-4.386-1.797-3.575 0-6.668 3.15-6.668 6.979 0 3.828 3.093 6.98 6.668 6.98zm.304-2.735c-2.358 0-4.107-1.771-4.107-4.245s1.75-4.245 4.107-4.245c2.358 0 4.108 1.771 4.108 4.245s-1.75 4.245-4.108 4.245z" fill="#1D1D1D"/><path d="M121.65 13.552c0-3.698-2.662-7.031-6.643-7.031-3.853 0-6.946 3.15-6.946 7.057 0 3.854 3.042 6.901 6.946 6.901 2.231 0 4.336-.963 5.857-2.656l-1.749-1.797c-.913.964-2.181 1.719-3.955 1.719-2.13 0-3.702-1.198-4.209-2.943h10.623c.051-.52.076-.885.076-1.25zm-6.693-4.427c2.003 0 3.524 1.302 3.98 3.203H110.9c.482-1.9 2.054-3.203 4.057-3.203z" fill="#E5E5E5"/><path d="M121.65 13.552c0-3.698-2.662-7.031-6.643-7.031-3.853 0-6.946 3.15-6.946 7.057 0 3.854 3.042 6.901 6.946 6.901 2.231 0 4.336-.963 5.857-2.656l-1.749-1.797c-.913.964-2.181 1.719-3.955 1.719-2.13 0-3.702-1.198-4.209-2.943h10.623c.051-.52.076-.885.076-1.25zm-6.693-4.427c2.003 0 3.524 1.302 3.98 3.203H110.9c.482-1.9 2.054-3.203 4.057-3.203z" fill="#1D1D1D"/><path d="M126.533 10.219c0-.73.836-1.094 2.028-1.094 1.343 0 2.713.443 3.549 1.12l1.597-2.057c-1.293-1.068-3.118-1.667-4.969-1.667-2.991 0-4.994 1.588-4.994 3.932 0 1.901 1.293 3.23 4.031 4.037 2.51.729 3.422 1.223 3.422 2.03 0 .834-.938 1.355-2.332 1.355-1.521 0-2.966-.625-4.107-1.797l-1.724 2.136c1.369 1.354 3.422 2.265 5.704 2.265 3.119 0 5.248-1.692 5.248-4.192 0-2.058-1.419-3.386-4.36-4.22-2.333-.676-3.093-1.171-3.093-1.848z" fill="#E5E5E5"/><path d="M126.533 10.219c0-.73.836-1.094 2.028-1.094 1.343 0 2.713.443 3.549 1.12l1.597-2.057c-1.293-1.068-3.118-1.667-4.969-1.667-2.991 0-4.994 1.588-4.994 3.932 0 1.901 1.293 3.23 4.031 4.037 2.51.729 3.422 1.223 3.422 2.03 0 .834-.938 1.355-2.332 1.355-1.521 0-2.966-.625-4.107-1.797l-1.724 2.136c1.369 1.354 3.422 2.265 5.704 2.265 3.119 0 5.248-1.692 5.248-4.192 0-2.058-1.419-3.386-4.36-4.22-2.333-.676-3.093-1.171-3.093-1.848z" fill="#1D1D1D"/><path d="M139.315 6.86h-2.662v13.28h2.662V6.86zm.507-3.985c0-.964-.786-1.875-1.825-1.875-.989 0-1.851.833-1.851 1.875 0 1.068.862 1.901 1.851 1.901 1.039 0 1.825-.911 1.825-1.901z" fill="#E5E5E5"/><path d="M139.315 6.86h-2.662v13.28h2.662V6.86zm.507-3.985c0-.964-.786-1.875-1.825-1.875-.989 0-1.851.833-1.851 1.875 0 1.068.862 1.901 1.851 1.901 1.039 0 1.825-.911 1.825-1.901z" fill="#1D1D1D"/><path d="M148.826 23.266c-1.496 0-2.688-.573-3.981-1.927l-1.901 2.005c1.394 1.666 3.6 2.656 5.958 2.656 4.005 0 6.794-2.89 6.794-7.057V6.859h-2.662v1.459c-.963-1.068-2.662-1.797-4.386-1.797-3.575 0-6.668 3.15-6.668 6.979 0 3.828 3.093 6.98 6.668 6.98 1.724 0 3.423-.73 4.386-1.798v.287c0 2.578-1.648 4.297-4.208 4.297zm.126-14.01c2.358 0 4.108 1.77 4.108 4.244 0 2.474-1.75 4.245-4.108 4.245-2.357 0-4.107-1.771-4.107-4.245s1.75-4.245 4.107-4.245z" fill="#E5E5E5"/><path d="M148.826 23.266c-1.496 0-2.688-.573-3.981-1.927l-1.901 2.005c1.394 1.666 3.6 2.656 5.958 2.656 4.005 0 6.794-2.89 6.794-7.057V6.859h-2.662v1.459c-.963-1.068-2.662-1.797-4.386-1.797-3.575 0-6.668 3.15-6.668 6.979 0 3.828 3.093 6.98 6.668 6.98 1.724 0 3.423-.73 4.386-1.798v.287c0 2.578-1.648 4.297-4.208 4.297zm.126-14.01c2.358 0 4.108 1.77 4.108 4.244 0 2.474-1.75 4.245-4.108 4.245-2.357 0-4.107-1.771-4.107-4.245s1.75-4.245 4.107-4.245z" fill="#1D1D1D"/><path d="M165.169 9.255c1.901 0 3.169 1.354 3.169 3.516v7.37H171v-7.526c0-3.62-2.155-6.094-5.4-6.094-1.547 0-2.941.573-3.955 1.667V6.859h-2.662v13.282h2.662v-7.474c0-1.875 1.521-3.412 3.524-3.412z" fill="#E5E5E5"/><path d="M165.169 9.255c1.901 0 3.169 1.354 3.169 3.516v7.37H171v-7.526c0-3.62-2.155-6.094-5.4-6.094-1.547 0-2.941.573-3.955 1.667V6.859h-2.662v13.282h2.662v-7.474c0-1.875 1.521-3.412 3.524-3.412z" fill="#1D1D1D"/></svg>