<svg width="110" height="72" fill="none" xmlns="http://www.w3.org/2000/svg"><rect width="110" height="72" rx="15" fill="#005FF9"/><g filter="url(#filter0_i)"><path d="M15 41.34L35 52v-6.76L22.907 39 35 32.76V26L15 36.66v4.68z" fill="url(#paint0_linear)"/><path d="M15 41.34L35 52v-6.76L22.907 39 35 32.76V26L15 36.66v4.68z" fill="#19191A"/></g><g filter="url(#filter1_i)"><path d="M93 41.34L73 52v-6.76L85.093 39 73 32.76V26l20 10.66v4.68z" fill="url(#paint1_linear)"/><path d="M93 41.34L73 52v-6.76L85.093 39 73 32.76V26l20 10.66v4.68z" fill="#19191A"/></g><rect x="43" y="47" width="5" height="5" rx="2.5" fill="#001CB3"/><rect x="51.571" y="47" width="5" height="5" rx="2.5" fill="#001CB3"/><rect x="60.143" y="47" width="5" height="5" rx="2.5" fill="#001CB3"/><path stroke="#fff" stroke-width="1.8" d="M61.9 19.9h29.2v18.2H61.9z"/><path fill="#FF9E00" d="M58 16h6v6h-6zm0 19h6v6h-6zm30-19h6v6h-6zm0 19h6v6h-6z"/><defs><filter id="filter0_i" x="15" y="26" width="20" height="26" filterUnits="userSpaceOnUse" color-interpolation-filters="sRGB"><feFlood flood-opacity="0" result="BackgroundImageFix"/><feBlend in="SourceGraphic" in2="BackgroundImageFix" result="shape"/><feColorMatrix in="SourceAlpha" values="0 0 0 0 0 0 0 0 0 0 0 0 0 0 0 0 0 0 127 0" result="hardAlpha"/><feOffset/><feGaussianBlur stdDeviation="1"/><feComposite in2="hardAlpha" operator="arithmetic" k2="-1" k3="1"/><feColorMatrix values="0 0 0 0 0 0 0 0 0 0 0 0 0 0 0 0 0 0 0.4 0"/><feBlend in2="shape" result="effect1_innerShadow"/></filter><filter id="filter1_i" x="73" y="26" width="20" height="26" filterUnits="userSpaceOnUse" color-interpolation-filters="sRGB"><feFlood flood-opacity="0" result="BackgroundImageFix"/><feBlend in="SourceGraphic" in2="BackgroundImageFix" result="shape"/><feColorMatrix in="SourceAlpha" values="0 0 0 0 0 0 0 0 0 0 0 0 0 0 0 0 0 0 127 0" result="hardAlpha"/><feOffset/><feGaussianBlur stdDeviation="1"/><feComposite in2="hardAlpha" operator="arithmetic" k2="-1" k3="1"/><feColorMatrix values="0 0 0 0 0 0 0 0 0 0 0 0 0 0 0 0 0 0 0.4 0"/><feBlend in2="shape" result="effect1_innerShadow"/></filter><linearGradient id="paint0_linear" x1="43.33" y1="15.127" x2="7.666" y2="67.851" gradientUnits="userSpaceOnUse"><stop stop-color="#423F3F"/><stop offset="1"/></linearGradient><linearGradient id="paint1_linear" x1="64.67" y1="15.127" x2="100.334" y2="67.851" gradientUnits="userSpaceOnUse"><stop stop-color="#423F3F"/><stop offset="1"/></linearGradient></defs></svg>