<svg width="110" height="72" fill="none" xmlns="http://www.w3.org/2000/svg"><rect width="110" height="72" rx="15" fill="#005FF9"/><path fill="#19191A" d="M43 21h44v27H43z"/><path fill-rule="evenodd" clip-rule="evenodd" d="M21 28.078V55.52h6.99V39.784c0-2.817 2.355-5.118 5.27-5.118 2.915 0 5.27 2.3 5.27 5.118V55.52h7.041V39.784c0-2.813 2.35-5.118 5.32-5.118 2.75 0 5.118 2.287 5.118 5.118V55.52H63V39.784c0-3.617-1.174-6.682-3.284-8.848-2.111-2.166-5.093-3.362-8.573-3.362-3.348 0-6.753 1.39-9.001 3.672-2.11-2.296-4.927-3.672-8.63-3.672a10.44 10.44 0 0 0-5.521 1.554v-1.05H21z" fill="#FE8A01"/><path fill="#fff" d="M83 18h6v6h-6zm0 27h6v6h-6zM40 18h6v6h-6zm32.866 36.5a1 1 0 0 1-1.732 0l-4.33-7.5a1 1 0 0 1 .866-1.5h8.66a1 1 0 0 1 .866 1.5l-4.33 7.5z"/><path stroke="#fff" stroke-width="2" d="M72 50V38"/><path d="M72.866 17.5a1 1 0 0 0-1.732 0l-4.33 7.5a1 1 0 0 0 .866 1.5h8.66a1 1 0 0 0 .866-1.5l-4.33-7.5z" fill="#fff"/><path stroke="#fff" stroke-width="2" d="M72 22v12"/></svg>