<svg width="110" height="72" fill="none" xmlns="http://www.w3.org/2000/svg"><rect width="110" height="72" rx="15" fill="#005FF9"/><path stroke="#fff" stroke-width="1.8" d="M24 39.1h34"/><path fill="#FF9E00" d="M21 36h6.65v7H21zm31 0h6.65v7H52z"/><path d="M69.63 41.26a6.688 6.688 0 0 1-2.613-.507 6.5 6.5 0 0 1-2.106-1.404 6.5 6.5 0 0 1-1.404-2.106A6.688 6.688 0 0 1 63 34.63c0-.936.169-1.807.507-2.613a6.5 6.5 0 0 1 1.404-2.106 6.5 6.5 0 0 1 2.106-1.404A6.688 6.688 0 0 1 69.63 28h10.725v24.2h-3.51V31.705H73.14V52.2h-3.51V41.26z" fill="#fff"/><path d="M55 30.156h-1.736c-.466-1.368-1.218-2.834-2.255-4.398-1.022-1.563-1.968-2.405-2.84-2.525a30.34 30.34 0 0 0-1.781-.158 29.238 29.238 0 0 0-1.826-.068h-1.06v25.1c0 .54.097 1.022.293 1.443.195.406.579.729 1.15.97.345.135.879.277 1.6.428.737.135 1.36.233 1.872.293V53H30.583v-1.759a272.93 272.93 0 0 1 1.827-.18c.796-.09 1.337-.196 1.623-.316.586-.24.977-.564 1.172-.97.196-.406.293-.887.293-1.443V23.007h-1.06c-.51 0-1.12.023-1.826.068-.706.045-1.3.097-1.78.158-.873.12-1.827.962-2.864 2.525-1.022 1.564-1.766 3.03-2.232 4.398H24V21h31v9.156z" fill="#000"/><path d="M79.68 26.215L75 25.045l.975-2.925 4.485 1.755L80.07 19h3.12l-.39 4.875 4.485-1.755.975 2.925-4.68 1.17 3.12 3.9-2.34 1.95-2.73-4.29-2.73 4.29-2.34-1.95 3.12-3.9z" fill="#FF9E01"/></svg>