<svg width="110" height="72" fill="none" xmlns="http://www.w3.org/2000/svg"><rect width="110" height="72" rx="15" fill="#005FF9"/><path d="M66.199 38.11c0 3.746-2.944 6.784-6.557 6.784-3.613 0-6.557-3.046-6.557-6.783 0-3.738 2.944-6.784 6.557-6.784 3.613 0 6.557 3.038 6.557 6.784zm-6.557-22.56c-12.024 0-21.809 10.122-21.809 22.56 0 12.44 9.785 22.562 21.809 22.562 4.405 0 8.65-1.354 12.285-3.926l.066-.045-2.937-3.535-.051.038a16.885 16.885 0 0 1-9.363 2.843c-9.56 0-17.338-8.047-17.338-17.936 0-9.89 7.779-17.937 17.338-17.937 9.56 0 17.337 8.047 17.337 17.937 0 1.278-.138 2.58-.407 3.858-.545 2.33-2.122 3.038-3.307 2.948-1.192-.098-2.58-.978-2.588-3.121V38.11c0-6.295-4.95-11.409-11.028-11.409-6.077 0-11.035 5.114-11.035 11.409 0 6.294 4.943 11.408 11.028 11.408 2.951 0 5.728-1.196 7.814-3.37 1.214 1.956 3.199 3.182 5.445 3.37a7.198 7.198 0 0 0 5.016-1.527c1.309-1.03 2.283-2.511 2.82-4.294.088-.285.248-.947.248-.955l.007-.022c.32-1.422.458-2.85.458-4.61 0-12.44-9.785-22.562-21.808-22.562z" fill="url(#paint0_linear)"/><path d="M71.927 56.746l-.142-.206-.002.002.144.204zm.066-.045l.142.206.225-.155-.175-.21-.192.16zm-2.937-3.535l.192-.16-.15-.18-.19.14.148.2zm-.051.038l.138.209.01-.008-.148-.2zm-9.363 2.843v-.25.25zm16.93-14.078l.244.056.001-.005-.245-.051zm-3.307 2.948l-.02.249.02-.25zm-2.588-3.121h-.25.25zm-3.22 4.354l.212-.132-.17-.273-.223.232.18.173zm5.444 3.37l-.02.248h.001l.02-.249zm5.016-1.528l.155.197-.155-.197zm2.82-4.294l-.238-.073v.001l.239.072zm.248-.955l-.238-.077-.012.038v.04h.25zm.007-.022l.238.076.004-.01.002-.011-.244-.055zM65.95 38.11c0 3.615-2.84 6.533-6.307 6.533v.5c3.758 0 6.807-3.158 6.807-7.033h-.5zm-6.307 6.533c-3.467 0-6.307-2.926-6.307-6.533h-.5c0 3.867 3.048 7.033 6.807 7.033v-.5zm-6.307-6.533c0-3.608 2.84-6.534 6.307-6.534v-.5c-3.76 0-6.807 3.166-6.807 7.034h.5zm6.307-6.534c3.467 0 6.307 2.919 6.307 6.534h.5c0-3.876-3.048-7.034-6.807-7.034v.5zm0-16.278c-12.17 0-22.059 10.243-22.059 22.812h.5c0-12.31 9.681-22.312 21.559-22.312v-.5zm-22.06 22.813c0 12.568 9.89 22.81 22.059 22.81v-.5c-11.878 0-21.559-10.002-21.559-22.31h-.5zm22.059 22.81c4.457 0 8.753-1.37 12.43-3.97l-.29-.409c-3.592 2.542-7.787 3.88-12.14 3.88v.5zm12.427-3.969l.066-.045-.284-.412-.066.045.284.412zm.116-.41l-2.937-3.535-.385.32L71.8 56.86l.385-.32zm-3.278-3.577l-.05.038.296.402.051-.038-.297-.402zm-.04.03a16.636 16.636 0 0 1-9.225 2.802v.5c3.38 0 6.662-1 9.501-2.885l-.276-.416zm-9.225 2.802c-9.414 0-17.088-7.927-17.088-17.686h-.5c0 10.019 7.883 18.186 17.588 18.186v-.5zM42.554 38.11c0-9.76 7.674-17.687 17.088-17.687v-.5c-9.706 0-17.588 8.167-17.588 18.187h.5zm17.088-17.687c9.413 0 17.087 7.927 17.087 17.687h.5c0-10.02-7.882-18.187-17.587-18.187v.5zM76.729 38.11c0 1.26-.136 2.544-.401 3.806l.489.103c.272-1.295.412-2.613.412-3.91h-.5zm-.4 3.8c-.261 1.118-.764 1.823-1.32 2.24a2.567 2.567 0 0 1-1.725.516l-.038.499c.648.05 1.4-.12 2.062-.615.665-.497 1.224-1.311 1.508-2.526l-.487-.113zm-3.044 2.756a2.526 2.526 0 0 1-1.581-.72c-.445-.448-.774-1.138-.777-2.152l-.5.002c.004 1.129.373 1.95.922 2.502a3.026 3.026 0 0 0 1.895.867l.041-.499zm-2.358-2.871v-1.64h-.5v1.64h.5zm0-1.64V38.11h-.5v2.045h.5zm0-2.045c0-6.425-5.055-11.659-11.278-11.659v.5c5.931 0 10.778 4.994 10.778 11.159h.5zM59.649 26.452c-6.223 0-11.285 5.234-11.285 11.659h.5c0-6.165 4.854-11.159 10.785-11.159v-.5zM48.364 38.111c0 6.424 5.047 11.658 11.278 11.658v-.5c-5.939 0-10.778-4.994-10.778-11.158h-.5zm11.278 11.658c3.02 0 5.862-1.224 7.995-3.446l-.36-.346c-2.041 2.125-4.753 3.292-7.635 3.292v.5zm7.602-3.487c1.255 2.02 3.31 3.292 5.636 3.486l.042-.498c-2.166-.181-4.08-1.362-5.253-3.252l-.425.264zm5.638 3.486c.203.016.405.024.608.024v-.5c-.19 0-.38-.008-.57-.022l-.038.498zm.608.024a7.448 7.448 0 0 0 4.582-1.603l-.31-.393a6.948 6.948 0 0 1-4.272 1.496v.5zm4.582-1.603c1.353-1.066 2.354-2.593 2.905-4.419l-.479-.144c-.525 1.74-1.472 3.175-2.736 4.17l.31.393zm2.905-4.418c.045-.15.109-.392.16-.594a30.24 30.24 0 0 0 .09-.37l.002-.01a1.623 1.623 0 0 1 .003-.019s.003-.015.003-.035h-.5l.001-.024a.188.188 0 0 1 .003-.019v-.005.002a1.515 1.515 0 0 1-.023.1l-.064.258c-.051.203-.112.434-.153.57l.478.146zm.246-.951l.007-.023-.476-.153-.007.023.476.153zm.013-.044c.325-1.444.464-2.892.464-4.665h-.5c0 1.745-.137 3.155-.452 4.555l.488.11zm.464-4.665c0-12.57-9.889-22.812-22.058-22.812v.5C71.519 15.8 81.2 25.802 81.2 38.111h.5z" fill="#FF9B01"/><ellipse cx="67.474" cy="46.924" rx="2.717" ry="2.809" fill="#19191A"/><path d="M66.68 47.097L80.14 63M66.68 47.097h21.153" stroke="#19191A" stroke-width="2" stroke-linecap="round"/><path d="M79.912 47.097c.947 4.118-.866 8.341-4.319 11.084M28.804 11h30.718v25H28.804z" stroke="#19191A" stroke-width="2"/><path fill="#fff" d="M25 8h6v6h-6zm0 25h6v6h-6zM56.784 8h6v6h-6zm0 25h6v6h-6z"/><defs><linearGradient id="paint0_linear" x1="88.277" y1="15.549" x2="88.277" y2="60.672" gradientUnits="userSpaceOnUse"><stop stop-color="#FF9E00"/><stop offset="1" stop-color="#F90"/></linearGradient></defs></svg>