<svg width="663" height="900" fill="none" xmlns="http://www.w3.org/2000/svg"><path d="M596.464 394.183l.63-.487-.523-.6-18.751-21.5-.449-.515-.554.399h-.001l-.002.002-.012.009-.051.036-.21.146c-.187.128-.469.318-.841.561a73.648 73.648 0 0 1-3.294 2.019c-2.886 1.673-7.115 3.908-12.472 6.144-10.715 4.472-25.928 8.942-43.93 8.942-62.338 0-113.003-50.665-113.003-113.002 0-62.338 50.665-113.003 113.003-113.003 62.337 0 113.002 50.665 113.002 113.003 0 16.191-2.619 26.839-6.73 33.415-4.077 6.525-9.646 9.086-15.77 9.086-10.311 0-18.251-7.889-18.251-19.251v-23.25c0-39.916-32.336-72.252-72.251-72.252-39.916 0-72.252 32.336-72.252 72.252 0 39.915 32.336 72.251 72.252 72.251 19.876 0 37.797-8.064 50.877-21.062 8.461 12.771 22.945 21.312 39.625 21.312 14.592 0 27.691-5.846 37.122-17.881 9.417-12.017 15.129-30.138 15.129-54.62 0-78.667-64.087-142.754-142.753-142.754-78.667 0-142.754 64.087-142.754 142.754 0 78.666 64.087 142.753 142.754 142.753 24.129 0 44.234-6.221 58.304-12.439 7.036-3.11 12.567-6.221 16.342-8.557a93.267 93.267 0 0 0 4.316-2.826c.49-.342.862-.612 1.113-.797l.161-.119.124-.093.074-.056.019-.015.005-.004.002-.001-.459-.594.459.594zM473.502 276.337a42.357 42.357 0 0 1 42.502-42.502c23.339 0 42.501 18.918 42.501 42.502 0 23.336-19.165 42.501-42.501 42.501-23.584 0-42.502-19.162-42.502-42.501z" fill="#D9DADD" fill-opacity=".72" stroke="#919399" stroke-width="1.5"/><mask id="mask0" maskUnits="userSpaceOnUse" x="374" y="134" width="285" height="285"><path d="M516.004 134C437.752 134 374 197.752 374 276.004c0 78.251 63.752 142.003 142.004 142.003 48.001 0 80.001-24.751 80.001-24.751l-18.75-21.5s-25.001 18-61.251 18c-62.752 0-113.753-51.001-113.753-113.752 0-62.752 51.001-113.753 113.753-113.753 62.751 0 113.752 51.001 113.752 113.753 0 32.5-10.5 43.251-23.25 43.251-10.751 0-19.001-8.251-19.001-20.001v-23.25c0-39.501-32.001-71.502-71.501-71.502-39.501 0-71.502 32.001-71.502 71.502 0 39.5 32.001 71.501 71.502 71.501 20 0 38-8.25 51.001-21.5 8.25 13 22.75 21.75 39.501 21.75 28.75 0 51.501-23 51.501-71.751 0-78.252-63.752-142.004-142.003-142.004zm-43.252 142.004a43.107 43.107 0 0 1 43.252-43.252c23.75 0 43.251 19.251 43.251 43.252 0 23.75-19.501 43.251-43.251 43.251-24.001 0-43.252-19.501-43.252-43.251z" fill="#3F4042"/></mask><g mask="url(#mask0)" stroke="#3F4042" stroke-opacity=".26"><path d="M526.403 61.536L325.134 443.377M552.102 77.293L350.833 459.134M543.536 72.041l-201.27 381.841M577.801 93.05l-201.27 381.841M534.97 66.789L333.7 448.63M569.235 87.798L367.966 469.639M560.667 82.545l-201.27 381.841m235.537-360.831l-201.27 381.841m64.211-465.878l-201.27 381.841M483.572 35.275L282.303 417.116M475.007 30.023l-201.27 381.841M509.272 51.032L308.003 432.873M466.44 24.771L265.171 406.612M500.707 45.78l-201.27 381.841M492.14 40.527L290.87 422.368M517.838 56.284l-201.27 381.841m346.894-292.552l-201.27 381.841M689.161 161.33l-201.27 381.841m192.705-387.094l-201.27 381.841m235.533-360.831L513.59 558.927m158.438-408.102L470.759 532.666m235.534-360.832l-201.27 381.841m192.704-387.093L496.458 548.423m226.967-366.084L522.155 564.18m64.212-465.877l-201.269 381.84m235.534-360.831l-201.27 381.841M612.064 114.06L410.795 495.9m235.534-360.832l-201.27 381.841M603.5 108.807L402.23 490.648m235.534-360.832l-201.27 381.841m192.703-387.093L427.928 506.405m226.968-366.084L453.627 522.162"/></g><g filter="url(#filter0_ddddd)"><path d="M195.608 397.146L186 382.373v-72.972h59.493v-82.11h100.495v82.11l103.711 2.587v71.355l-10.676 13.803h-93.035V581.49c0 14.49 4.824 26.565 14.472 36.225 9.647 9.66 21.975 14.49 36.982 14.49h52.257v81.634L439.023 728h-51.229c-39.662 0-73.428-12.612-101.299-37.835-27.334-25.223-41.002-56.618-41.002-94.185V397.146h-49.885z" fill="url(#paint0_linear)"/><path d="M186 382.855V295.11h59.493V213h100.495v82.11h103.711v87.745H345.988v184.344c0 14.49 4.824 26.565 14.472 36.225 9.647 9.66 21.975 14.49 36.982 14.49h52.257v95.795h-61.905c-39.662 0-73.428-12.612-101.299-37.835-27.334-25.224-41.002-56.618-41.002-94.185V382.855H186z" fill="url(#paint1_linear)"/><path d="M245.493 382.355H186.5V295.61h59.493V213.5h99.495v82.11h103.711v86.745H345.488v184.844c0 14.613 4.871 26.818 14.618 36.578 9.751 9.764 22.21 14.637 37.336 14.637h51.757v94.795h-61.405c-39.545 0-73.189-12.57-100.962-37.705-27.229-25.127-40.839-56.388-40.839-93.815V382.355h-.5z" stroke="url(#paint2_linear)" stroke-opacity=".6"/></g><ellipse cx="241.193" cy="579.044" rx="21.997" ry="25.956" fill="#0047FF" style="mix-blend-mode:multiply" filter="url(#filter1_f)"/><g opacity=".65"><circle cx="240.814" cy="550.83" r="34.814" fill="#2C8DFF"/><circle cx="240.814" cy="550.83" r="34.814" fill="url(#paint3_linear)"/></g><path d="M263.19 569.369c0 12.876-9.849 23.314-21.997 23.314s-21.997-10.438-21.997-23.314c0-12.875 9.849 0 21.997 0s21.997-12.875 21.997 0z" fill="#003E9C" fill-opacity=".68" filter="url(#filter2_f)"/><circle cx="240.814" cy="550.814" r="34.814" fill="url(#paint4_linear)"/><g filter="url(#filter3_ddd)"><g filter="url(#filter4_i)" clip-path="url(#clip0)"><path d="M240.999 532.164c3.633 0 6.9.9 9.8 2.7 2.9 1.767 5.083 4.15 6.55 7.15l-6.5 2.45a10.703 10.703 0 0 0-4.1-4.25c-1.734-1.067-3.65-1.6-5.75-1.6-3.2 0-5.884 1.133-8.05 3.4-2.134 2.233-3.2 5.033-3.2 8.4s1.066 6.167 3.2 8.4c2.133 2.233 4.816 3.35 8.05 3.35 2.1 0 4.016-.517 5.75-1.55a10.703 10.703 0 0 0 4.1-4.25l6.5 2.45c-1.434 3-3.617 5.4-6.55 7.2-2.934 1.767-6.2 2.65-9.8 2.65-5.167 0-9.517-1.733-13.05-5.2-3.467-3.533-5.2-7.883-5.2-13.05 0-5.2 1.733-9.533 5.2-13 3.5-3.5 7.85-5.25 13.05-5.25z" fill="#629EF8"/><path d="M240.999 532.164c3.633 0 6.9.9 9.8 2.7 2.9 1.767 5.083 4.15 6.55 7.15l-6.5 2.45a10.703 10.703 0 0 0-4.1-4.25c-1.734-1.067-3.65-1.6-5.75-1.6-3.2 0-5.884 1.133-8.05 3.4-2.134 2.233-3.2 5.033-3.2 8.4s1.066 6.167 3.2 8.4c2.133 2.233 4.816 3.35 8.05 3.35 2.1 0 4.016-.517 5.75-1.55a10.703 10.703 0 0 0 4.1-4.25l6.5 2.45c-1.434 3-3.617 5.4-6.55 7.2-2.934 1.767-6.2 2.65-9.8 2.65-5.167 0-9.517-1.733-13.05-5.2-3.467-3.533-5.2-7.883-5.2-13.05 0-5.2 1.733-9.533 5.2-13 3.5-3.5 7.85-5.25 13.05-5.25z" fill="url(#paint5_linear)" fill-opacity=".3"/></g></g><ellipse cx="592.911" cy="699.627" rx="15.571" ry="18.373" fill="#F00" style="mix-blend-mode:multiply" filter="url(#filter5_f)"/><g opacity=".65"><circle cx="592.644" cy="679.655" r="24.644" fill="#FF452C"/><circle cx="592.644" cy="679.655" r="24.644" fill="url(#paint6_linear)"/></g><path d="M608.482 692.778c0 9.114-6.971 16.503-15.57 16.503-8.6 0-15.571-7.389-15.571-16.503s6.971 0 15.571 0c8.599 0 15.57-9.114 15.57 0z" fill="#9C0000" fill-opacity=".68" filter="url(#filter6_f)"/><circle cx="592.644" cy="679.644" r="24.644" fill="url(#paint7_linear)"/><g filter="url(#filter7_ddd)"><g filter="url(#filter8_i)" clip-path="url(#clip1)"><path d="M595.862 691h-11.129v-21.7h10.509c1.922 0 3.513.568 4.774 1.705 1.281 1.116 1.922 2.521 1.922 4.216 0 1.757-.703 3.214-2.108 4.371 2.025 1.219 3.038 2.955 3.038 5.208 0 1.736-.672 3.214-2.015 4.433-1.323 1.178-2.987 1.767-4.991 1.767zm0-9.238h-6.975v5.394h6.975c.764 0 1.395-.258 1.891-.775.516-.517.775-1.157.775-1.922 0-.765-.259-1.405-.775-1.922-.496-.517-1.127-.775-1.891-.775zm-.62-8.618h-6.355v4.805h6.355c.682 0 1.25-.227 1.705-.682.454-.455.682-1.033.682-1.736 0-.682-.228-1.25-.682-1.705-.455-.455-1.023-.682-1.705-.682z" fill="#FF9E89"/><path d="M595.862 691h-11.129v-21.7h10.509c1.922 0 3.513.568 4.774 1.705 1.281 1.116 1.922 2.521 1.922 4.216 0 1.757-.703 3.214-2.108 4.371 2.025 1.219 3.038 2.955 3.038 5.208 0 1.736-.672 3.214-2.015 4.433-1.323 1.178-2.987 1.767-4.991 1.767zm0-9.238h-6.975v5.394h6.975c.764 0 1.395-.258 1.891-.775.516-.517.775-1.157.775-1.922 0-.765-.259-1.405-.775-1.922-.496-.517-1.127-.775-1.891-.775zm-.62-8.618h-6.355v4.805h6.355c.682 0 1.25-.227 1.705-.682.454-.455.682-1.033.682-1.736 0-.682-.228-1.25-.682-1.705-.455-.455-1.023-.682-1.705-.682z" fill="url(#paint8_linear)" fill-opacity=".3"/></g></g><ellipse cx="342.842" cy="328.043" rx="19.903" ry="23.485" fill="#F00" style="mix-blend-mode:multiply" filter="url(#filter9_f)"/><g opacity=".65"><circle cx="342.5" cy="302.516" r="31.5" fill="#FF452C"/><circle cx="342.5" cy="302.516" r="31.5" fill="url(#paint9_linear)"/></g><path d="M362.745 319.289c0 11.65-8.911 21.094-19.903 21.094-10.992 0-19.903-9.444-19.903-21.094s8.911 0 19.903 0c10.992 0 19.903-11.65 19.903 0z" fill="#9C0000" fill-opacity=".68" filter="url(#filter10_f)"/><circle cx="342.5" cy="302.5" r="31.5" fill="url(#paint10_linear)"/><g filter="url(#filter11_ddd)"><g filter="url(#filter12_i)" clip-path="url(#clip2)"><path d="M354.39 312.792V318h-23.562v-4.326l15.54-19.866h-15.414V288.6h23.31v4.326l-15.582 19.866h15.708z" fill="#FF9E89"/><path d="M354.39 312.792V318h-23.562v-4.326l15.54-19.866h-15.414V288.6h23.31v4.326l-15.582 19.866h15.708z" fill="url(#paint11_linear)" fill-opacity=".3"/></g></g><ellipse cx="69.912" cy="312.627" rx="15.571" ry="18.373" fill="#FFC700" style="mix-blend-mode:multiply" filter="url(#filter13_f)"/><g opacity=".65"><circle cx="69.644" cy="292.655" r="24.644" fill="#FFD02C"/><circle cx="69.644" cy="292.655" r="24.644" fill="url(#paint12_linear)"/></g><path d="M85.482 305.778c0 9.114-6.971 16.503-15.57 16.503-8.6 0-15.571-7.389-15.571-16.503s6.971 0 15.57 0c8.6 0 15.571-9.114 15.571 0z" fill="#9C6700" fill-opacity=".68" filter="url(#filter14_f)"/><circle cx="69.644" cy="292.644" r="24.644" fill="url(#paint13_linear)"/><g filter="url(#filter15_ddd)"><g filter="url(#filter16_i)" clip-path="url(#clip3)"><path d="M70.507 304h-9.089v-22.4h9.089c3.328 0 6.1 1.077 8.32 3.232 2.24 2.155 3.36 4.811 3.36 7.968s-1.12 5.813-3.36 7.968c-2.22 2.155-4.992 3.232-8.32 3.232zm0-18.432h-4.8v14.464h4.8c2.047 0 3.765-.693 5.151-2.08 1.387-1.429 2.08-3.147 2.08-5.152 0-2.048-.693-3.765-2.08-5.152-1.386-1.387-3.103-2.08-5.151-2.08z" fill="#F8CE62"/><path d="M70.507 304h-9.089v-22.4h9.089c3.328 0 6.1 1.077 8.32 3.232 2.24 2.155 3.36 4.811 3.36 7.968s-1.12 5.813-3.36 7.968c-2.22 2.155-4.992 3.232-8.32 3.232zm0-18.432h-4.8v14.464h4.8c2.047 0 3.765-.693 5.151-2.08 1.387-1.429 2.08-3.147 2.08-5.152 0-2.048-.693-3.765-2.08-5.152-1.386-1.387-3.103-2.08-5.151-2.08z" fill="url(#paint14_linear)" fill-opacity=".3"/></g></g><rect x="192.089" y="223.988" width="73.971" height="40.246" rx="20" fill="#000" opacity=".7" filter="url(#filter17_f)"/><rect x="186.848" y="234.205" width="83.749" height="37.04" rx="18.52" fill="#000" opacity=".3" filter="url(#filter18_f)"/><rect x="186.371" y="205" width="85.172" height="56" rx="17" fill="url(#paint15_linear)"/><rect x="187.271" y="205.9" width="83.372" height="54.2" rx="16.1" stroke="url(#paint16_linear)" stroke-opacity=".1" stroke-width="1.8"/><path d="M212.737 240.349c.098.056.217.112.357.168.112.042.238.077.378.105.154.028.329.042.525.042.42 0 .777-.126 1.071-.378.308-.238.546-.567.714-.987l.42-1.05-4.095-10.08h2.31l2.835 7.455 2.835-7.455h2.31l-4.41 11.235c-.42 1.064-.931 1.869-1.533 2.415-.588.56-1.302.84-2.142.84-.238 0-.455-.014-.651-.042a3.595 3.595 0 0 1-.483-.105 14.89 14.89 0 0 1-.441-.168v-1.995zm10.705-7.14c0-.728.133-1.414.399-2.058a5.314 5.314 0 0 1 1.113-1.659 5.162 5.162 0 0 1 1.659-1.113 5.157 5.157 0 0 1 2.079-.42c.728 0 1.414.14 2.058.42a4.875 4.875 0 0 1 1.659 1.113 4.875 4.875 0 0 1 1.113 1.659c.28.644.42 1.33.42 2.058 0 .742-.14 1.435-.42 2.079a5.162 5.162 0 0 1-1.113 1.659 5.314 5.314 0 0 1-1.659 1.113 5.337 5.337 0 0 1-2.058.399 5.392 5.392 0 0 1-2.079-.399 5.659 5.659 0 0 1-1.659-1.113 5.659 5.659 0 0 1-1.113-1.659 5.392 5.392 0 0 1-.399-2.079zm5.25 3.255c.448 0 .861-.077 1.239-.231a3.178 3.178 0 0 0 1.008-.672 3.14 3.14 0 0 0 .651-1.029c.168-.406.252-.847.252-1.323s-.084-.91-.252-1.302a2.874 2.874 0 0 0-.651-1.029 2.772 2.772 0 0 0-1.008-.672 3.016 3.016 0 0 0-1.239-.252c-.448 0-.868.084-1.26.252a2.813 2.813 0 0 0-.987.672c-.28.28-.504.623-.672 1.029a3.532 3.532 0 0 0-.231 1.302c0 .476.077.917.231 1.323.168.392.392.735.672 1.029.28.28.609.504.987.672.392.154.812.231 1.26.231zm7.561-8.295h2.1v5.88c0 .742.21 1.33.63 1.764.434.434.994.651 1.68.651.392 0 .756-.07 1.092-.21.336-.14.623-.329.861-.567.238-.252.427-.553.567-.903.14-.35.21-.735.21-1.155v-5.46h2.1v10.08h-2.1v-1.47c-.224.308-.49.588-.798.84-.266.21-.595.406-.987.588-.378.168-.833.252-1.365.252a4.258 4.258 0 0 1-1.596-.294 3.882 3.882 0 0 1-1.281-.882 4 4 0 0 1-.819-1.386c-.196-.546-.294-1.162-.294-1.848v-5.88z" fill="#EDEEEE"/><rect x="415.818" y="312.297" width="114.296" height="39.389" rx="19.695" fill="#000" opacity=".3" filter="url(#filter19_f)"/><rect x="422.168" y="299.764" width="100.803" height="42.075" rx="20" fill="#000" opacity=".08" filter="url(#filter20_f)"/><rect x="399.256" y="286.34" width="145.832" height="54.2" rx="16.1" fill="#F2F2F2" stroke="url(#paint17_linear)" stroke-width="1.8"/><path d="M430.872 312.497h-1.89v-1.995h1.155c.322 0 .56-.084.714-.252.154-.182.231-.483.231-.903v-2.205h1.89v3.36h2.31v1.995h-2.31v4.725c0 1.05.49 1.575 1.47 1.575a2.444 2.444 0 0 0 .819-.147 3.75 3.75 0 0 0 .336-.168v1.995c-.14.056-.287.112-.441.168a4.186 4.186 0 0 1-1.134.147c-1.008 0-1.785-.28-2.331-.84-.546-.574-.819-1.414-.819-2.52v-4.935zm15.955 6.405c-.28.364-.63.679-1.05.945a6.686 6.686 0 0 1-1.344.651c-.532.196-1.169.294-1.911.294a5.392 5.392 0 0 1-2.079-.399 5.659 5.659 0 0 1-1.659-1.113 5.659 5.659 0 0 1-1.113-1.659 5.392 5.392 0 0 1-.399-2.079c0-.728.133-1.414.399-2.058a5.314 5.314 0 0 1 1.113-1.659 4.983 4.983 0 0 1 1.617-1.113c.63-.28 1.302-.42 2.016-.42s1.372.126 1.974.378c.602.238 1.12.581 1.554 1.029.448.434.791.952 1.029 1.554a5.061 5.061 0 0 1 .315 2.73c-.014.112-.028.21-.042.294h-7.77c.056.336.168.658.336.966.182.308.406.581.672.819.28.224.602.406.966.546.364.126.756.189 1.176.189.448 0 .854-.07 1.218-.21a4.73 4.73 0 0 0 .924-.462c.294-.196.56-.427.798-.693l1.26 1.47zm-1.68-4.41c-.154-.686-.462-1.239-.924-1.659-.462-.434-1.064-.651-1.806-.651-.798 0-1.435.217-1.911.651-.476.42-.819.973-1.029 1.659h5.67zm10.386 4.62c-.21.308-.476.588-.798.84a5.39 5.39 0 0 1-1.029.588c-.406.168-.882.252-1.428.252-.504 0-.966-.077-1.386-.231a3.6 3.6 0 0 1-1.05-.651 2.97 2.97 0 0 1-.693-.924 2.882 2.882 0 0 1-.231-1.134c0-.84.266-1.533.798-2.079.532-.56 1.246-.917 2.142-1.071l3.675-.63c0-.532-.196-.98-.588-1.344-.378-.364-.882-.546-1.512-.546a2.5 2.5 0 0 0-1.092.231c-.308.14-.581.294-.819.462-.266.196-.504.42-.714.672l-1.365-1.365c.28-.35.616-.665 1.008-.945a5.998 5.998 0 0 1 1.239-.651c.49-.196 1.071-.294 1.743-.294.63 0 1.204.098 1.722.294.518.196.959.469 1.323.819a3.6 3.6 0 0 1 .84 1.239c.21.476.315.987.315 1.533v6.405h-2.1v-1.47zm0-3.36l-2.94.525c-.532.098-.931.273-1.197.525a1.12 1.12 0 0 0-.378.84c0 .364.147.686.441.966.294.266.707.399 1.239.399.392 0 .756-.07 1.092-.21a2.76 2.76 0 0 0 .903-.63c.266-.266.469-.574.609-.924.154-.364.231-.756.231-1.176v-.315zm5.031-5.25h2.1v1.47c.168-.308.392-.588.672-.84.238-.21.539-.399.903-.567.378-.182.833-.273 1.365-.273.546 0 1.015.091 1.407.273.406.168.735.357.987.567.294.252.546.532.756.84.196-.308.455-.588.777-.84.28-.21.637-.399 1.071-.567.448-.182.987-.273 1.617-.273.504 0 .973.105 1.407.315.448.196.84.483 1.176.861.336.364.602.812.798 1.344.196.532.294 1.127.294 1.785v5.985h-2.1v-5.985c0-.742-.203-1.309-.609-1.701a2.028 2.028 0 0 0-1.491-.609 2.27 2.27 0 0 0-1.722.735c-.462.49-.693 1.155-.693 1.995v5.565h-2.1v-5.985c0-.742-.203-1.309-.609-1.701a2.028 2.028 0 0 0-1.491-.609 2.27 2.27 0 0 0-1.722.735c-.462.49-.693 1.155-.693 1.995v5.565h-2.1v-10.08zm18.377-4.62h2.1v14.7h-2.1v-14.7zm14.07 13.02c-.28.364-.63.679-1.05.945a6.686 6.686 0 0 1-1.344.651c-.532.196-1.169.294-1.911.294a5.392 5.392 0 0 1-2.079-.399 5.659 5.659 0 0 1-1.659-1.113 5.659 5.659 0 0 1-1.113-1.659 5.392 5.392 0 0 1-.399-2.079c0-.728.133-1.414.399-2.058a5.314 5.314 0 0 1 1.113-1.659 4.983 4.983 0 0 1 1.617-1.113c.63-.28 1.302-.42 2.016-.42s1.372.126 1.974.378c.602.238 1.12.581 1.554 1.029.448.434.791.952 1.029 1.554a5.061 5.061 0 0 1 .315 2.73c-.014.112-.028.21-.042.294h-7.77c.056.336.168.658.336.966.182.308.406.581.672.819.28.224.602.406.966.546.364.126.756.189 1.176.189.448 0 .854-.07 1.218-.21a4.73 4.73 0 0 0 .924-.462c.294-.196.56-.427.798-.693l1.26 1.47zm-1.68-4.41c-.154-.686-.462-1.239-.924-1.659-.462-.434-1.064-.651-1.806-.651-.798 0-1.435.217-1.911.651-.476.42-.819.973-1.029 1.659h5.67zm10.386 4.62c-.21.308-.476.588-.798.84a5.39 5.39 0 0 1-1.029.588c-.406.168-.882.252-1.428.252-.504 0-.966-.077-1.386-.231a3.6 3.6 0 0 1-1.05-.651 2.97 2.97 0 0 1-.693-.924 2.882 2.882 0 0 1-.231-1.134c0-.84.266-1.533.798-2.079.532-.56 1.246-.917 2.142-1.071l3.675-.63c0-.532-.196-.98-.588-1.344-.378-.364-.882-.546-1.512-.546a2.5 2.5 0 0 0-1.092.231c-.308.14-.581.294-.819.462-.266.196-.504.42-.714.672l-1.365-1.365c.28-.35.616-.665 1.008-.945a5.998 5.998 0 0 1 1.239-.651c.49-.196 1.071-.294 1.743-.294.63 0 1.204.098 1.722.294.518.196.959.469 1.323.819a3.6 3.6 0 0 1 .84 1.239c.21.476.315.987.315 1.533v6.405h-2.1v-1.47zm0-3.36l-2.94.525c-.532.098-.931.273-1.197.525a1.12 1.12 0 0 0-.378.84c0 .364.147.686.441.966.294.266.707.399 1.239.399.392 0 .756-.07 1.092-.21a2.76 2.76 0 0 0 .903-.63c.266-.266.469-.574.609-.924.154-.364.231-.756.231-1.176v-.315zm12.59 3.36c-.21.308-.483.588-.819.84-.28.21-.644.406-1.092.588-.434.168-.952.252-1.554.252-.63 0-1.232-.126-1.806-.378a4.86 4.86 0 0 1-1.512-1.092 5.943 5.943 0 0 1-1.029-1.68 5.713 5.713 0 0 1-.378-2.1c0-.756.126-1.456.378-2.1a5.64 5.64 0 0 1 1.029-1.659c.434-.476.938-.84 1.512-1.092a4.246 4.246 0 0 1 1.806-.399c.602 0 1.12.091 1.554.273.448.168.812.357 1.092.567.336.252.609.532.819.84v-6.09h2.1v14.7h-2.1v-1.47zm-3.045-.315c.42 0 .812-.077 1.176-.231.378-.168.7-.392.966-.672a3.14 3.14 0 0 0 .651-1.029c.168-.406.252-.847.252-1.323s-.084-.91-.252-1.302a2.874 2.874 0 0 0-.651-1.029 2.614 2.614 0 0 0-.966-.672 2.772 2.772 0 0 0-1.176-.252c-.42 0-.819.084-1.197.252a2.864 2.864 0 0 0-.966.672c-.266.28-.483.623-.651 1.029a3.532 3.532 0 0 0-.231 1.302c0 .476.077.917.231 1.323.168.392.385.735.651 1.029.28.28.602.504.966.672.378.154.777.231 1.197.231z" fill="#000"/><rect x="418.356" y="573.195" width="146.917" height="40.246" rx="17" fill="#000" opacity=".7" filter="url(#filter21_f)"/><rect x="407.946" y="583.412" width="166.337" height="37.04" rx="17" fill="#000" opacity=".3" filter="url(#filter22_f)"/><rect x="407" y="554.207" width="169.164" height="56" rx="17" fill="url(#paint18_linear)"/><rect x="407.9" y="555.107" width="167.364" height="54.2" rx="16.1" stroke="url(#paint19_linear)" stroke-opacity=".1" stroke-width="1.8"/><path d="M444.608 586.932c-.21.308-.476.588-.798.84a5.39 5.39 0 0 1-1.029.588c-.406.168-.882.252-1.428.252-.504 0-.966-.077-1.386-.231a3.6 3.6 0 0 1-1.05-.651 2.97 2.97 0 0 1-.693-.924 2.882 2.882 0 0 1-.231-1.134c0-.84.266-1.533.798-2.079.532-.56 1.246-.917 2.142-1.071l3.675-.63c0-.532-.196-.98-.588-1.344-.378-.364-.882-.546-1.512-.546a2.5 2.5 0 0 0-1.092.231c-.308.14-.581.294-.819.462-.266.196-.504.42-.714.672l-1.365-1.365c.28-.35.616-.665 1.008-.945a5.998 5.998 0 0 1 1.239-.651c.49-.196 1.071-.294 1.743-.294.63 0 1.204.098 1.722.294.518.196.959.469 1.323.819a3.6 3.6 0 0 1 .84 1.239c.21.476.315.987.315 1.533v6.405h-2.1v-1.47zm0-3.36l-2.94.525c-.532.098-.931.273-1.197.525a1.12 1.12 0 0 0-.378.84c0 .364.147.686.441.966.294.266.707.399 1.239.399.392 0 .756-.07 1.092-.21a2.76 2.76 0 0 0 .903-.63c.266-.266.469-.574.609-.924.154-.364.231-.756.231-1.176v-.315zm5.03-5.25h2.1v1.365c.224-.28.483-.539.777-.777.252-.196.567-.378.945-.546.378-.168.819-.252 1.323-.252h.525v2.205a11.93 11.93 0 0 1-.273-.042 11.93 11.93 0 0 0-.273-.042 1.809 1.809 0 0 0-.294-.021c-.364 0-.714.077-1.05.231-.322.14-.609.35-.861.63a3.072 3.072 0 0 0-.609.966c-.14.364-.21.77-.21 1.218v5.145h-2.1v-10.08zm8.618 1.995h-1.89v-1.995h1.155c.322 0 .56-.084.714-.252.154-.182.231-.483.231-.903v-2.205h1.89v3.36h2.31v1.995h-2.31v4.725c0 1.05.49 1.575 1.47 1.575a2.444 2.444 0 0 0 .819-.147 3.75 3.75 0 0 0 .336-.168v1.995c-.14.056-.287.112-.441.168a4.186 4.186 0 0 1-1.134.147c-1.008 0-1.785-.28-2.331-.84-.546-.574-.819-1.414-.819-2.52v-4.935zm19.204 6.615c-.21.308-.483.588-.819.84-.28.21-.644.406-1.092.588-.434.168-.952.252-1.554.252-.63 0-1.232-.126-1.806-.378a4.86 4.86 0 0 1-1.512-1.092 5.943 5.943 0 0 1-1.029-1.68 5.713 5.713 0 0 1-.378-2.1c0-.756.126-1.456.378-2.1a5.64 5.64 0 0 1 1.029-1.659c.434-.476.938-.84 1.512-1.092a4.246 4.246 0 0 1 1.806-.399c.602 0 1.12.091 1.554.273.448.168.812.357 1.092.567.336.252.609.532.819.84v-6.09h2.1v14.7h-2.1v-1.47zm-3.045-.315c.42 0 .812-.077 1.176-.231.378-.168.7-.392.966-.672a3.14 3.14 0 0 0 .651-1.029c.168-.406.252-.847.252-1.323s-.084-.91-.252-1.302a2.874 2.874 0 0 0-.651-1.029 2.614 2.614 0 0 0-.966-.672 2.772 2.772 0 0 0-1.176-.252c-.42 0-.819.084-1.197.252a2.864 2.864 0 0 0-.966.672c-.266.28-.483.623-.651 1.029a3.532 3.532 0 0 0-.231 1.302c0 .476.077.917.231 1.323.168.392.385.735.651 1.029.28.28.602.504.966.672.378.154.777.231 1.197.231zm8.305-8.295h2.1v10.08h-2.1v-10.08zm-.21-3.15c0-.364.126-.665.378-.903.266-.238.56-.357.882-.357.322 0 .609.119.861.357.266.238.399.539.399.903s-.133.665-.399.903a1.22 1.22 0 0 1-.861.357c-.322 0-.616-.119-.882-.357a1.189 1.189 0 0 1-.378-.903zm5.355 3.15h2.1v1.365c.224-.28.483-.539.777-.777.252-.196.567-.378.945-.546.378-.168.819-.252 1.323-.252h.525v2.205a11.93 11.93 0 0 1-.273-.042 11.93 11.93 0 0 0-.273-.042 1.809 1.809 0 0 0-.294-.021c-.364 0-.714.077-1.05.231-.322.14-.609.35-.861.63a3.072 3.072 0 0 0-.609.966c-.14.364-.21.77-.21 1.218v5.145h-2.1v-10.08zm16.287 8.4c-.28.364-.63.679-1.05.945a6.686 6.686 0 0 1-1.344.651c-.532.196-1.169.294-1.911.294a5.392 5.392 0 0 1-2.079-.399 5.659 5.659 0 0 1-1.659-1.113 5.659 5.659 0 0 1-1.113-1.659 5.392 5.392 0 0 1-.399-2.079c0-.728.133-1.414.399-2.058a5.314 5.314 0 0 1 1.113-1.659 4.983 4.983 0 0 1 1.617-1.113c.63-.28 1.302-.42 2.016-.42s1.372.126 1.974.378c.602.238 1.12.581 1.554 1.029.448.434.791.952 1.029 1.554a5.061 5.061 0 0 1 .315 2.73c-.014.112-.028.21-.042.294h-7.77c.056.336.168.658.336.966.182.308.406.581.672.819.28.224.602.406.966.546.364.126.756.189 1.176.189.448 0 .854-.07 1.218-.21a4.73 4.73 0 0 0 .924-.462c.294-.196.56-.427.798-.693l1.26 1.47zm-1.68-4.41c-.154-.686-.462-1.239-.924-1.659-.462-.434-1.064-.651-1.806-.651-.798 0-1.435.217-1.911.651-.476.42-.819.973-1.029 1.659h5.67zm13.431 4.2a5.561 5.561 0 0 1-1.092 1.05 6.656 6.656 0 0 1-1.344.735c-.532.21-1.155.315-1.869.315a5.392 5.392 0 0 1-2.079-.399 5.659 5.659 0 0 1-1.659-1.113 5.659 5.659 0 0 1-1.113-1.659 5.392 5.392 0 0 1-.399-2.079c0-.728.133-1.414.399-2.058a5.314 5.314 0 0 1 1.113-1.659 5.162 5.162 0 0 1 1.659-1.113 5.157 5.157 0 0 1 2.079-.42c.714 0 1.33.105 1.848.315.532.21.973.441 1.323.693.406.294.749.623 1.029.987l-1.47 1.365a3.51 3.51 0 0 0-.693-.672 4.481 4.481 0 0 0-.861-.462c-.336-.154-.728-.231-1.176-.231-.448 0-.868.084-1.26.252a2.813 2.813 0 0 0-.987.672c-.28.28-.504.623-.672 1.029a3.532 3.532 0 0 0-.231 1.302c0 .476.077.917.231 1.323.168.392.392.735.672 1.029.28.28.609.504.987.672.392.154.812.231 1.26.231.448 0 .847-.07 1.197-.21.35-.154.644-.329.882-.525.28-.21.532-.455.756-.735l1.47 1.365zm3.035-6.195h-1.89v-1.995h1.155c.322 0 .56-.084.714-.252.154-.182.231-.483.231-.903v-2.205h1.89v3.36h2.31v1.995h-2.31v4.725c0 1.05.49 1.575 1.47 1.575a2.444 2.444 0 0 0 .819-.147 3.75 3.75 0 0 0 .336-.168v1.995c-.14.056-.287.112-.441.168a4.186 4.186 0 0 1-1.134.147c-1.008 0-1.785-.28-2.331-.84-.546-.574-.819-1.414-.819-2.52v-4.935zm6.4 3.045c0-.728.133-1.414.399-2.058a5.314 5.314 0 0 1 1.113-1.659 5.162 5.162 0 0 1 1.659-1.113 5.157 5.157 0 0 1 2.079-.42c.728 0 1.414.14 2.058.42a4.875 4.875 0 0 1 1.659 1.113 4.875 4.875 0 0 1 1.113 1.659c.28.644.42 1.33.42 2.058 0 .742-.14 1.435-.42 2.079a5.162 5.162 0 0 1-1.113 1.659 5.314 5.314 0 0 1-1.659 1.113 5.337 5.337 0 0 1-2.058.399 5.392 5.392 0 0 1-2.079-.399 5.659 5.659 0 0 1-1.659-1.113 5.659 5.659 0 0 1-1.113-1.659 5.392 5.392 0 0 1-.399-2.079zm5.25 3.255c.448 0 .861-.077 1.239-.231a3.178 3.178 0 0 0 1.008-.672 3.14 3.14 0 0 0 .651-1.029c.168-.406.252-.847.252-1.323s-.084-.91-.252-1.302a2.874 2.874 0 0 0-.651-1.029 2.772 2.772 0 0 0-1.008-.672 3.016 3.016 0 0 0-1.239-.252c-.448 0-.868.084-1.26.252a2.813 2.813 0 0 0-.987.672c-.28.28-.504.623-.672 1.029a3.532 3.532 0 0 0-.231 1.302c0 .476.077.917.231 1.323.168.392.392.735.672 1.029.28.28.609.504.987.672.392.154.812.231 1.26.231zm7.562-8.295h2.1v1.365c.224-.28.483-.539.777-.777.252-.196.567-.378.945-.546.378-.168.819-.252 1.323-.252h.525v2.205a11.93 11.93 0 0 1-.273-.042 11.93 11.93 0 0 0-.273-.042 1.809 1.809 0 0 0-.294-.021c-.364 0-.714.077-1.05.231-.322.14-.609.35-.861.63a3.072 3.072 0 0 0-.609.966c-.14.364-.21.77-.21 1.218v5.145h-2.1v-10.08z" fill="#EDEEEE"/><rect x="156.343" y="659.611" width="106.969" height="39.389" rx="19.695" fill="#000" opacity=".3" filter="url(#filter23_f)"/><rect x="162.285" y="647.079" width="94.341" height="42.075" rx="20" fill="#000" opacity=".08" filter="url(#filter24_f)"/><rect x="140.9" y="633.655" width="136.369" height="54.2" rx="16.1" fill="#F2F2F2" stroke="url(#paint20_linear)" stroke-width="1.8"/><path d="M177.325 665.426c-.21.308-.483.588-.819.84-.28.21-.644.406-1.092.588-.434.168-.952.252-1.554.252-.63 0-1.232-.126-1.806-.378a4.86 4.86 0 0 1-1.512-1.092 5.943 5.943 0 0 1-1.029-1.68 5.713 5.713 0 0 1-.378-2.1c0-.756.126-1.456.378-2.1a5.64 5.64 0 0 1 1.029-1.659c.434-.476.938-.84 1.512-1.092a4.246 4.246 0 0 1 1.806-.399c.602 0 1.12.091 1.554.273.448.168.812.357 1.092.567.336.252.609.532.819.84v-6.09h2.1v14.7h-2.1v-1.47zm-3.045-.315c.42 0 .812-.077 1.176-.231.378-.168.7-.392.966-.672a3.14 3.14 0 0 0 .651-1.029c.168-.406.252-.847.252-1.323s-.084-.91-.252-1.302a2.874 2.874 0 0 0-.651-1.029 2.614 2.614 0 0 0-.966-.672 2.772 2.772 0 0 0-1.176-.252c-.42 0-.819.084-1.197.252a2.864 2.864 0 0 0-.966.672c-.266.28-.483.623-.651 1.029a3.532 3.532 0 0 0-.231 1.302c0 .476.077.917.231 1.323.168.392.385.735.651 1.029.28.28.602.504.966.672.378.154.777.231 1.197.231zm17.125.105c-.28.364-.63.679-1.05.945a6.686 6.686 0 0 1-1.344.651c-.532.196-1.169.294-1.911.294a5.392 5.392 0 0 1-2.079-.399 5.659 5.659 0 0 1-1.659-1.113 5.659 5.659 0 0 1-1.113-1.659 5.392 5.392 0 0 1-.399-2.079c0-.728.133-1.414.399-2.058a5.314 5.314 0 0 1 1.113-1.659 4.983 4.983 0 0 1 1.617-1.113c.63-.28 1.302-.42 2.016-.42s1.372.126 1.974.378c.602.238 1.12.581 1.554 1.029.448.434.791.952 1.029 1.554a5.061 5.061 0 0 1 .315 2.73c-.014.112-.028.21-.042.294h-7.77c.056.336.168.658.336.966.182.308.406.581.672.819.28.224.602.406.966.546.364.126.756.189 1.176.189.448 0 .854-.07 1.218-.21a4.73 4.73 0 0 0 .924-.462c.294-.196.56-.427.798-.693l1.26 1.47zm-1.68-4.41c-.154-.686-.462-1.239-.924-1.659-.462-.434-1.064-.651-1.806-.651-.798 0-1.435.217-1.911.651-.476.42-.819.973-1.029 1.659h5.67zm4.926 3.045c.21.266.448.497.714.693.238.168.511.322.819.462.322.14.686.21 1.092.21.588 0 1.029-.126 1.323-.378.308-.266.462-.56.462-.882 0-.28-.133-.497-.399-.651a4.338 4.338 0 0 0-.987-.441 54.943 54.943 0 0 0-1.302-.399 6.19 6.19 0 0 1-1.281-.546 3.384 3.384 0 0 1-.987-.903c-.266-.378-.399-.868-.399-1.47 0-.392.084-.763.252-1.113a2.77 2.77 0 0 1 .714-.945 3.663 3.663 0 0 1 1.155-.63c.462-.168.98-.252 1.554-.252.602 0 1.127.077 1.575.231.448.14.819.294 1.113.462.35.196.644.42.882.672l-1.365 1.365a3.153 3.153 0 0 0-.588-.42 3.43 3.43 0 0 0-.714-.294 2.995 2.995 0 0 0-.903-.126c-.532 0-.931.112-1.197.336-.252.21-.378.448-.378.714 0 .28.133.504.399.672.266.154.595.294.987.42s.819.259 1.281.399c.476.14.91.329 1.302.567.392.224.721.525.987.903s.399.861.399 1.449c0 .42-.091.819-.273 1.197-.168.378-.42.714-.756 1.008a3.658 3.658 0 0 1-1.239.693 4.84 4.84 0 0 1-1.617.252c-.672 0-1.253-.098-1.743-.294a5.998 5.998 0 0 1-1.239-.651 4.324 4.324 0 0 1-1.008-.945l1.365-1.365zm8.811-7.035h2.1v10.08h-2.1v-10.08zm-.21-3.15c0-.364.126-.665.378-.903.266-.238.56-.357.882-.357.322 0 .609.119.861.357.266.238.399.539.399.903s-.133.665-.399.903a1.22 1.22 0 0 1-.861.357c-.322 0-.616-.119-.882-.357a1.189 1.189 0 0 1-.378-.903zm6.51 14.175c.224.28.476.525.756.735.238.196.532.364.882.504.35.154.749.231 1.197.231.952 0 1.715-.294 2.289-.882.574-.574.861-1.365.861-2.373v-.945c-.21.294-.476.56-.798.798-.28.196-.623.378-1.029.546-.406.154-.882.231-1.428.231a4.062 4.062 0 0 1-1.722-.378 4.798 4.798 0 0 1-1.449-1.029 5.39 5.39 0 0 1-.987-1.596 5.608 5.608 0 0 1-.357-2.037c0-.728.119-1.4.357-2.016.252-.63.581-1.162.987-1.596.42-.448.903-.798 1.449-1.05a4.062 4.062 0 0 1 1.722-.378c.546 0 1.022.084 1.428.252.406.168.749.35 1.029.546.322.238.588.497.798.777v-1.365h2.1v9.24c0 .756-.133 1.456-.399 2.1a4.632 4.632 0 0 1-1.092 1.659 4.632 4.632 0 0 1-1.659 1.092 5.447 5.447 0 0 1-2.1.399c-.714 0-1.337-.112-1.869-.336a6.021 6.021 0 0 1-1.344-.714 5.561 5.561 0 0 1-1.092-1.05l1.47-1.365zm3.15-3.15c.392 0 .756-.07 1.092-.21a2.76 2.76 0 0 0 .903-.63 2.9 2.9 0 0 0 .609-.966c.154-.378.231-.791.231-1.239 0-.448-.077-.854-.231-1.218-.14-.378-.343-.7-.609-.966a2.397 2.397 0 0 0-.903-.63 2.59 2.59 0 0 0-1.092-.231c-.392 0-.763.077-1.113.231-.336.14-.637.35-.903.63a3.072 3.072 0 0 0-.609.966c-.14.364-.21.77-.21 1.218 0 .448.07.861.21 1.239.154.364.357.686.609.966.266.266.567.476.903.63.35.14.721.21 1.113.21zm7.877-7.875h2.1v1.47c.21-.308.469-.588.777-.84.266-.21.595-.399.987-.567.392-.182.854-.273 1.386-.273.574 0 1.106.105 1.596.315.49.196.91.483 1.26.861.364.378.644.84.84 1.386.196.546.294 1.162.294 1.848v5.88h-2.1v-5.88c0-.742-.217-1.33-.651-1.764-.42-.434-.973-.651-1.659-.651-.392 0-.756.07-1.092.21a2.48 2.48 0 0 0-.861.588 2.587 2.587 0 0 0-.567.882c-.14.35-.21.735-.21 1.155v5.46h-2.1v-10.08zm21.107 8.4c-.28.364-.63.679-1.05.945a6.686 6.686 0 0 1-1.344.651c-.532.196-1.169.294-1.911.294a5.392 5.392 0 0 1-2.079-.399 5.659 5.659 0 0 1-1.659-1.113 5.659 5.659 0 0 1-1.113-1.659 5.392 5.392 0 0 1-.399-2.079c0-.728.133-1.414.399-2.058a5.314 5.314 0 0 1 1.113-1.659 4.983 4.983 0 0 1 1.617-1.113c.63-.28 1.302-.42 2.016-.42s1.372.126 1.974.378c.602.238 1.12.581 1.554 1.029.448.434.791.952 1.029 1.554a5.061 5.061 0 0 1 .315 2.73c-.014.112-.028.21-.042.294h-7.77c.056.336.168.658.336.966.182.308.406.581.672.819.28.224.602.406.966.546.364.126.756.189 1.176.189.448 0 .854-.07 1.218-.21a4.73 4.73 0 0 0 .924-.462c.294-.196.56-.427.798-.693l1.26 1.47zm-1.68-4.41c-.154-.686-.462-1.239-.924-1.659-.462-.434-1.064-.651-1.806-.651-.798 0-1.435.217-1.911.651-.476.42-.819.973-1.029 1.659h5.67zm4.506-3.99h2.1v1.365c.224-.28.483-.539.777-.777.252-.196.567-.378.945-.546.378-.168.819-.252 1.323-.252h.525v2.205a11.93 11.93 0 0 1-.273-.042 11.93 11.93 0 0 0-.273-.042 1.809 1.809 0 0 0-.294-.021c-.364 0-.714.077-1.05.231-.322.14-.609.35-.861.63a3.072 3.072 0 0 0-.609.966c-.14.364-.21.77-.21 1.218v5.145h-2.1v-10.08z" fill="#000"/><path d="M292 661h28.515c13.808 0 25-11.193 25-25v-31c0-13.807 11.193-25 25-25H395" stroke="#000" stroke-width="2.8"/><circle cx="391" cy="580" r="5" fill="#000"/><circle cx="296" cy="661" r="5" fill="#000"/><defs><filter id="filter0_ddddd" x="106" y="213" width="423.699" height="695" filterUnits="userSpaceOnUse" color-interpolation-filters="sRGB"><feFlood flood-opacity="0" result="BackgroundImageFix"/><feColorMatrix in="SourceAlpha" values="0 0 0 0 0 0 0 0 0 0 0 0 0 0 0 0 0 0 127 0"/><feOffset dy="3.435"/><feGaussianBlur stdDeviation="1.374"/><feColorMatrix values="0 0 0 0 0.0784314 0 0 0 0 0.0784314 0 0 0 0 0.0784314 0 0 0 0.108506 0"/><feBlend in2="BackgroundImageFix" result="effect1_dropShadow"/><feColorMatrix in="SourceAlpha" values="0 0 0 0 0 0 0 0 0 0 0 0 0 0 0 0 0 0 127 0"/><feOffset dy="8.687"/><feGaussianBlur stdDeviation="3.475"/><feColorMatrix values="0 0 0 0 0.0784314 0 0 0 0 0.0784314 0 0 0 0 0.0784314 0 0 0 0.05 0"/><feBlend in2="effect1_dropShadow" result="effect2_dropShadow"/><feColorMatrix in="SourceAlpha" values="0 0 0 0 0 0 0 0 0 0 0 0 0 0 0 0 0 0 127 0"/><feOffset dx="3" dy="17.721"/><feGaussianBlur stdDeviation="7.088"/><feColorMatrix values="0 0 0 0 0.0784314 0 0 0 0 0.0784314 0 0 0 0 0.0784314 0 0 0 0.08 0"/><feBlend in2="effect2_dropShadow" result="effect3_dropShadow"/><feColorMatrix in="SourceAlpha" values="0 0 0 0 0 0 0 0 0 0 0 0 0 0 0 0 0 0 127 0"/><feOffset dy="36.502"/><feGaussianBlur stdDeviation="14.601"/><feColorMatrix values="0 0 0 0 0.0784314 0 0 0 0 0.0784314 0 0 0 0 0.0784314 0 0 0 0.17 0"/><feBlend in2="effect3_dropShadow" result="effect4_dropShadow"/><feColorMatrix in="SourceAlpha" values="0 0 0 0 0 0 0 0 0 0 0 0 0 0 0 0 0 0 127 0"/><feOffset dy="100"/><feGaussianBlur stdDeviation="40"/><feColorMatrix values="0 0 0 0 0.0784314 0 0 0 0 0.0784314 0 0 0 0 0.0784314 0 0 0 0.07 0"/><feBlend in2="effect4_dropShadow" result="effect5_dropShadow"/><feBlend in="SourceGraphic" in2="effect5_dropShadow" result="shape"/></filter><filter id="filter1_f" x="165.196" y="499.088" width="151.993" height="159.912" filterUnits="userSpaceOnUse" color-interpolation-filters="sRGB"><feFlood flood-opacity="0" result="BackgroundImageFix"/><feBlend in="SourceGraphic" in2="BackgroundImageFix" result="shape"/><feGaussianBlur stdDeviation="27" result="effect1_foregroundBlur"/></filter><filter id="filter2_f" x="205.196" y="549.647" width="71.993" height="57.036" filterUnits="userSpaceOnUse" color-interpolation-filters="sRGB"><feFlood flood-opacity="0" result="BackgroundImageFix"/><feBlend in="SourceGraphic" in2="BackgroundImageFix" result="shape"/><feGaussianBlur stdDeviation="7" result="effect1_foregroundBlur"/></filter><filter id="filter3_ddd" x="195.768" y="509.846" width="90.495" height="119.331" filterUnits="userSpaceOnUse" color-interpolation-filters="sRGB"><feFlood flood-opacity="0" result="BackgroundImageFix"/><feColorMatrix in="SourceAlpha" values="0 0 0 0 0 0 0 0 0 0 0 0 0 0 0 0 0 0 127 0"/><feOffset dy=".599"/><feGaussianBlur stdDeviation=".532"/><feColorMatrix values="0 0 0 0 0 0 0 0 0 0.0235294 0 0 0 0 0.541176 0 0 0 0.298881 0"/><feBlend in2="BackgroundImageFix" result="effect1_dropShadow"/><feColorMatrix in="SourceAlpha" values="0 0 0 0 0 0 0 0 0 0 0 0 0 0 0 0 0 0 127 0"/><feOffset dy="2.01"/><feGaussianBlur stdDeviation="1.787"/><feColorMatrix values="0 0 0 0 0 0 0 0 0 0.0235294 0 0 0 0 0.541176 0 0 0 0.441119 0"/><feBlend in2="effect1_dropShadow" result="effect2_dropShadow"/><feColorMatrix in="SourceAlpha" values="0 0 0 0 0 0 0 0 0 0 0 0 0 0 0 0 0 0 127 0"/><feOffset dy="9"/><feGaussianBlur stdDeviation="8"/><feColorMatrix values="0 0 0 0 0 0 0 0 0 0.0216666 0 0 0 0 0.541667 0 0 0 0.74 0"/><feBlend in2="effect2_dropShadow" result="effect3_dropShadow"/><feBlend in="SourceGraphic" in2="effect3_dropShadow" result="shape"/></filter><filter id="filter4_i" x="222.749" y="532.164" width="34.6" height="37.5" filterUnits="userSpaceOnUse" color-interpolation-filters="sRGB"><feFlood flood-opacity="0" result="BackgroundImageFix"/><feBlend in="SourceGraphic" in2="BackgroundImageFix" result="shape"/><feColorMatrix in="SourceAlpha" values="0 0 0 0 0 0 0 0 0 0 0 0 0 0 0 0 0 0 127 0" result="hardAlpha"/><feOffset dy="1"/><feGaussianBlur stdDeviation=".5"/><feComposite in2="hardAlpha" operator="arithmetic" k2="-1" k3="1"/><feColorMatrix values="0 0 0 0 1 0 0 0 0 1 0 0 0 0 1 0 0 0 0.25 0"/><feBlend in2="shape" result="effect1_innerShadow"/></filter><filter id="filter5_f" x="523.341" y="627.253" width="139.141" height="144.747" filterUnits="userSpaceOnUse" color-interpolation-filters="sRGB"><feFlood flood-opacity="0" result="BackgroundImageFix"/><feBlend in="SourceGraphic" in2="BackgroundImageFix" result="shape"/><feGaussianBlur stdDeviation="27" result="effect1_foregroundBlur"/></filter><filter id="filter6_f" x="563.341" y="674.728" width="59.141" height="48.553" filterUnits="userSpaceOnUse" color-interpolation-filters="sRGB"><feFlood flood-opacity="0" result="BackgroundImageFix"/><feBlend in="SourceGraphic" in2="BackgroundImageFix" result="shape"/><feGaussianBlur stdDeviation="7" result="effect1_foregroundBlur"/></filter><filter id="filter7_ddd" x="556.083" y="648.599" width="73.407" height="93.818" filterUnits="userSpaceOnUse" color-interpolation-filters="sRGB"><feFlood flood-opacity="0" result="BackgroundImageFix"/><feColorMatrix in="SourceAlpha" values="0 0 0 0 0 0 0 0 0 0 0 0 0 0 0 0 0 0 127 0"/><feOffset dy=".599"/><feGaussianBlur stdDeviation=".532"/><feColorMatrix values="0 0 0 0 0.541176 0 0 0 0 0 0 0 0 0 0 0 0 0 0.298881 0"/><feBlend in2="BackgroundImageFix" result="effect1_dropShadow"/><feColorMatrix in="SourceAlpha" values="0 0 0 0 0 0 0 0 0 0 0 0 0 0 0 0 0 0 127 0"/><feOffset dy="2.01"/><feGaussianBlur stdDeviation="1.787"/><feColorMatrix values="0 0 0 0 0.541176 0 0 0 0 0 0 0 0 0 0 0 0 0 0.441119 0"/><feBlend in2="effect1_dropShadow" result="effect2_dropShadow"/><feColorMatrix in="SourceAlpha" values="0 0 0 0 0 0 0 0 0 0 0 0 0 0 0 0 0 0 127 0"/><feOffset dy="9"/><feGaussianBlur stdDeviation="8"/><feColorMatrix values="0 0 0 0 0.541667 0 0 0 0 0 0 0 0 0 0 0 0 0 0.74 0"/><feBlend in2="effect2_dropShadow" result="effect3_dropShadow"/><feBlend in="SourceGraphic" in2="effect3_dropShadow" result="shape"/></filter><filter id="filter8_i" x="584.732" y="669.3" width="18.135" height="22.7" filterUnits="userSpaceOnUse" color-interpolation-filters="sRGB"><feFlood flood-opacity="0" result="BackgroundImageFix"/><feBlend in="SourceGraphic" in2="BackgroundImageFix" result="shape"/><feColorMatrix in="SourceAlpha" values="0 0 0 0 0 0 0 0 0 0 0 0 0 0 0 0 0 0 127 0" result="hardAlpha"/><feOffset dy="1"/><feGaussianBlur stdDeviation=".5"/><feComposite in2="hardAlpha" operator="arithmetic" k2="-1" k3="1"/><feColorMatrix values="0 0 0 0 1 0 0 0 0 1 0 0 0 0 1 0 0 0 0.25 0"/><feBlend in2="shape" result="effect1_innerShadow"/></filter><filter id="filter9_f" x="268.939" y="250.557" width="147.806" height="154.971" filterUnits="userSpaceOnUse" color-interpolation-filters="sRGB"><feFlood flood-opacity="0" result="BackgroundImageFix"/><feBlend in="SourceGraphic" in2="BackgroundImageFix" result="shape"/><feGaussianBlur stdDeviation="27" result="effect1_foregroundBlur"/></filter><filter id="filter10_f" x="308.939" y="300.111" width="67.806" height="54.272" filterUnits="userSpaceOnUse" color-interpolation-filters="sRGB"><feFlood flood-opacity="0" result="BackgroundImageFix"/><feBlend in="SourceGraphic" in2="BackgroundImageFix" result="shape"/><feGaussianBlur stdDeviation="7" result="effect1_foregroundBlur"/></filter><filter id="filter11_ddd" x="300.219" y="264.765" width="84.927" height="111.018" filterUnits="userSpaceOnUse" color-interpolation-filters="sRGB"><feFlood flood-opacity="0" result="BackgroundImageFix"/><feColorMatrix in="SourceAlpha" values="0 0 0 0 0 0 0 0 0 0 0 0 0 0 0 0 0 0 127 0"/><feOffset dy=".599"/><feGaussianBlur stdDeviation=".532"/><feColorMatrix values="0 0 0 0 0.541176 0 0 0 0 0 0 0 0 0 0 0 0 0 0.298881 0"/><feBlend in2="BackgroundImageFix" result="effect1_dropShadow"/><feColorMatrix in="SourceAlpha" values="0 0 0 0 0 0 0 0 0 0 0 0 0 0 0 0 0 0 127 0"/><feOffset dy="2.01"/><feGaussianBlur stdDeviation="1.787"/><feColorMatrix values="0 0 0 0 0.541176 0 0 0 0 0 0 0 0 0 0 0 0 0 0.441119 0"/><feBlend in2="effect1_dropShadow" result="effect2_dropShadow"/><feColorMatrix in="SourceAlpha" values="0 0 0 0 0 0 0 0 0 0 0 0 0 0 0 0 0 0 127 0"/><feOffset dy="9"/><feGaussianBlur stdDeviation="8"/><feColorMatrix values="0 0 0 0 0.541667 0 0 0 0 0 0 0 0 0 0 0 0 0 0.74 0"/><feBlend in2="effect2_dropShadow" result="effect3_dropShadow"/><feBlend in="SourceGraphic" in2="effect3_dropShadow" result="shape"/></filter><filter id="filter12_i" x="330.828" y="288.6" width="23.562" height="30.4" filterUnits="userSpaceOnUse" color-interpolation-filters="sRGB"><feFlood flood-opacity="0" result="BackgroundImageFix"/><feBlend in="SourceGraphic" in2="BackgroundImageFix" result="shape"/><feColorMatrix in="SourceAlpha" values="0 0 0 0 0 0 0 0 0 0 0 0 0 0 0 0 0 0 127 0" result="hardAlpha"/><feOffset dy="1"/><feGaussianBlur stdDeviation=".5"/><feComposite in2="hardAlpha" operator="arithmetic" k2="-1" k3="1"/><feColorMatrix values="0 0 0 0 1 0 0 0 0 1 0 0 0 0 1 0 0 0 0.25 0"/><feBlend in2="shape" result="effect1_innerShadow"/></filter><filter id="filter13_f" x=".341" y="240.253" width="139.141" height="144.747" filterUnits="userSpaceOnUse" color-interpolation-filters="sRGB"><feFlood flood-opacity="0" result="BackgroundImageFix"/><feBlend in="SourceGraphic" in2="BackgroundImageFix" result="shape"/><feGaussianBlur stdDeviation="27" result="effect1_foregroundBlur"/></filter><filter id="filter14_f" x="40.341" y="287.728" width="59.141" height="48.553" filterUnits="userSpaceOnUse" color-interpolation-filters="sRGB"><feFlood flood-opacity="0" result="BackgroundImageFix"/><feBlend in="SourceGraphic" in2="BackgroundImageFix" result="shape"/><feGaussianBlur stdDeviation="7" result="effect1_foregroundBlur"/></filter><filter id="filter15_ddd" x="33.083" y="261.599" width="73.407" height="93.818" filterUnits="userSpaceOnUse" color-interpolation-filters="sRGB"><feFlood flood-opacity="0" result="BackgroundImageFix"/><feColorMatrix in="SourceAlpha" values="0 0 0 0 0 0 0 0 0 0 0 0 0 0 0 0 0 0 127 0"/><feOffset dy=".599"/><feGaussianBlur stdDeviation=".532"/><feColorMatrix values="0 0 0 0 0.541176 0 0 0 0 0.294118 0 0 0 0 0 0 0 0 0.298881 0"/><feBlend in2="BackgroundImageFix" result="effect1_dropShadow"/><feColorMatrix in="SourceAlpha" values="0 0 0 0 0 0 0 0 0 0 0 0 0 0 0 0 0 0 127 0"/><feOffset dy="2.01"/><feGaussianBlur stdDeviation="1.787"/><feColorMatrix values="0 0 0 0 0.541176 0 0 0 0 0.294118 0 0 0 0 0 0 0 0 0.441119 0"/><feBlend in2="effect1_dropShadow" result="effect2_dropShadow"/><feColorMatrix in="SourceAlpha" values="0 0 0 0 0 0 0 0 0 0 0 0 0 0 0 0 0 0 127 0"/><feOffset dy="9"/><feGaussianBlur stdDeviation="8"/><feColorMatrix values="0 0 0 0 0.541667 0 0 0 0 0.2925 0 0 0 0 0 0 0 0 0.74 0"/><feBlend in2="effect2_dropShadow" result="effect3_dropShadow"/><feBlend in="SourceGraphic" in2="effect3_dropShadow" result="shape"/></filter><filter id="filter16_i" x="61.419" y="281.6" width="20.768" height="23.4" filterUnits="userSpaceOnUse" color-interpolation-filters="sRGB"><feFlood flood-opacity="0" result="BackgroundImageFix"/><feBlend in="SourceGraphic" in2="BackgroundImageFix" result="shape"/><feColorMatrix in="SourceAlpha" values="0 0 0 0 0 0 0 0 0 0 0 0 0 0 0 0 0 0 127 0" result="hardAlpha"/><feOffset dy="1"/><feGaussianBlur stdDeviation=".5"/><feComposite in2="hardAlpha" operator="arithmetic" k2="-1" k3="1"/><feColorMatrix values="0 0 0 0 1 0 0 0 0 1 0 0 0 0 1 0 0 0 0.25 0"/><feBlend in2="shape" result="effect1_innerShadow"/></filter><filter id="filter17_f" x="174.089" y="205.988" width="109.971" height="76.246" filterUnits="userSpaceOnUse" color-interpolation-filters="sRGB"><feFlood flood-opacity="0" result="BackgroundImageFix"/><feBlend in="SourceGraphic" in2="BackgroundImageFix" result="shape"/><feGaussianBlur stdDeviation="9" result="effect1_foregroundBlur"/></filter><filter id="filter18_f" x="139.848" y="187.205" width="177.749" height="131.04" filterUnits="userSpaceOnUse" color-interpolation-filters="sRGB"><feFlood flood-opacity="0" result="BackgroundImageFix"/><feBlend in="SourceGraphic" in2="BackgroundImageFix" result="shape"/><feGaussianBlur stdDeviation="23.5" result="effect1_foregroundBlur"/></filter><filter id="filter19_f" x="368.818" y="265.297" width="208.296" height="133.389" filterUnits="userSpaceOnUse" color-interpolation-filters="sRGB"><feFlood flood-opacity="0" result="BackgroundImageFix"/><feBlend in="SourceGraphic" in2="BackgroundImageFix" result="shape"/><feGaussianBlur stdDeviation="23.5" result="effect1_foregroundBlur"/></filter><filter id="filter20_f" x="402.168" y="279.764" width="140.803" height="82.075" filterUnits="userSpaceOnUse" color-interpolation-filters="sRGB"><feFlood flood-opacity="0" result="BackgroundImageFix"/><feBlend in="SourceGraphic" in2="BackgroundImageFix" result="shape"/><feGaussianBlur stdDeviation="10" result="effect1_foregroundBlur"/></filter><filter id="filter21_f" x="400.356" y="555.195" width="182.917" height="76.246" filterUnits="userSpaceOnUse" color-interpolation-filters="sRGB"><feFlood flood-opacity="0" result="BackgroundImageFix"/><feBlend in="SourceGraphic" in2="BackgroundImageFix" result="shape"/><feGaussianBlur stdDeviation="9" result="effect1_foregroundBlur"/></filter><filter id="filter22_f" x="360.946" y="536.412" width="260.337" height="131.04" filterUnits="userSpaceOnUse" color-interpolation-filters="sRGB"><feFlood flood-opacity="0" result="BackgroundImageFix"/><feBlend in="SourceGraphic" in2="BackgroundImageFix" result="shape"/><feGaussianBlur stdDeviation="23.5" result="effect1_foregroundBlur"/></filter><filter id="filter23_f" x="109.343" y="612.611" width="200.969" height="133.389" filterUnits="userSpaceOnUse" color-interpolation-filters="sRGB"><feFlood flood-opacity="0" result="BackgroundImageFix"/><feBlend in="SourceGraphic" in2="BackgroundImageFix" result="shape"/><feGaussianBlur stdDeviation="23.5" result="effect1_foregroundBlur"/></filter><filter id="filter24_f" x="142.285" y="627.079" width="134.341" height="82.075" filterUnits="userSpaceOnUse" color-interpolation-filters="sRGB"><feFlood flood-opacity="0" result="BackgroundImageFix"/><feBlend in="SourceGraphic" in2="BackgroundImageFix" result="shape"/><feGaussianBlur stdDeviation="10" result="effect1_foregroundBlur"/></filter><linearGradient id="paint0_linear" x1="291.408" y1="100.418" x2="789.223" y2="1412.45" gradientUnits="userSpaceOnUse"><stop stop-color="#E7E7E7"/><stop offset="1" stop-color="#949494"/></linearGradient><linearGradient id="paint1_linear" x1="317.85" y1="213" x2="399.733" y2="1049.2" gradientUnits="userSpaceOnUse"><stop stop-color="#F2F2F2"/><stop offset="1" stop-color="#DFDFDF"/></linearGradient><linearGradient id="paint2_linear" x1="317.85" y1="213" x2="318.141" y2="506.699" gradientUnits="userSpaceOnUse"><stop stop-color="#fff"/><stop offset="1" stop-color="#fff" stop-opacity="0"/></linearGradient><linearGradient id="paint3_linear" x1="258.447" y1="581.575" x2="217.755" y2="518.277" gradientUnits="userSpaceOnUse"><stop stop-color="#8C9EFA" stop-opacity=".63"/><stop offset="1" stop-color="#B8C7FF"/></linearGradient><linearGradient id="paint4_linear" x1="240.814" y1="516" x2="240.814" y2="585.628" gradientUnits="userSpaceOnUse"><stop stop-color="#377BFF"/><stop offset="1" stop-color="#0023DA"/></linearGradient><linearGradient id="paint5_linear" x1="219.306" y1="510.514" x2="246.572" y2="571.985" gradientUnits="userSpaceOnUse"><stop stop-color="#fff" stop-opacity=".4"/><stop offset="1" stop-color="#fff" stop-opacity="0"/></linearGradient><linearGradient id="paint6_linear" x1="605.125" y1="701.418" x2="576.321" y2="656.612" gradientUnits="userSpaceOnUse"><stop stop-color="#FA8C8C" stop-opacity=".63"/><stop offset="1" stop-color="#FFB8B8"/></linearGradient><linearGradient id="paint7_linear" x1="592.644" y1="655" x2="592.644" y2="704.287" gradientUnits="userSpaceOnUse"><stop stop-color="#FF6948"/><stop offset="1" stop-color="#EC1616"/></linearGradient><linearGradient id="paint8_linear" x1="572.891" y1="638.6" x2="600.157" y2="700.071" gradientUnits="userSpaceOnUse"><stop stop-color="#fff" stop-opacity=".4"/><stop offset="1" stop-color="#fff" stop-opacity="0"/></linearGradient><linearGradient id="paint9_linear" x1="358.455" y1="330.334" x2="321.636" y2="273.061" gradientUnits="userSpaceOnUse"><stop stop-color="#FA8C8C" stop-opacity=".63"/><stop offset="1" stop-color="#FFB8B8"/></linearGradient><linearGradient id="paint10_linear" x1="342.5" y1="271" x2="342.5" y2="334" gradientUnits="userSpaceOnUse"><stop stop-color="#FF6948"/><stop offset="1" stop-color="#EC1616"/></linearGradient><linearGradient id="paint11_linear" x1="321.891" y1="262.6" x2="349.157" y2="324.071" gradientUnits="userSpaceOnUse"><stop stop-color="#fff" stop-opacity=".4"/><stop offset="1" stop-color="#fff" stop-opacity="0"/></linearGradient><linearGradient id="paint12_linear" x1="82.125" y1="314.418" x2="53.321" y2="269.612" gradientUnits="userSpaceOnUse"><stop stop-color="#FADB8C" stop-opacity=".63"/><stop offset="1" stop-color="#FFF8B8"/></linearGradient><linearGradient id="paint13_linear" x1="69.644" y1="268" x2="69.644" y2="317.287" gradientUnits="userSpaceOnUse"><stop stop-color="#FFCD49"/><stop offset="1" stop-color="#E9B327"/></linearGradient><linearGradient id="paint14_linear" x1="50.891" y1="251.6" x2="78.157" y2="313.071" gradientUnits="userSpaceOnUse"><stop stop-color="#fff" stop-opacity=".4"/><stop offset="1" stop-color="#fff" stop-opacity="0"/></linearGradient><linearGradient id="paint15_linear" x1="237.429" y1="178.647" x2="228.486" y2="277.193" gradientUnits="userSpaceOnUse"><stop stop-color="#3A3A3A"/><stop offset="1" stop-color="#19191A"/></linearGradient><linearGradient id="paint16_linear" x1="228.957" y1="205" x2="228.969" y2="237.848" gradientUnits="userSpaceOnUse"><stop stop-color="#fff"/><stop offset="1" stop-color="#fff" stop-opacity="0"/></linearGradient><linearGradient id="paint17_linear" x1="472.173" y1="285.44" x2="472.173" y2="341.44" gradientUnits="userSpaceOnUse"><stop stop-color="#fff"/><stop offset="1" stop-color="#F2F2F2"/></linearGradient><linearGradient id="paint18_linear" x1="508.407" y1="527.854" x2="503.877" y2="627.004" gradientUnits="userSpaceOnUse"><stop stop-color="#3A3A3A"/><stop offset="1" stop-color="#19191A"/></linearGradient><linearGradient id="paint19_linear" x1="491.582" y1="554.207" x2="491.588" y2="587.055" gradientUnits="userSpaceOnUse"><stop stop-color="#fff"/><stop offset="1" stop-color="#fff" stop-opacity="0"/></linearGradient><linearGradient id="paint20_linear" x1="209.084" y1="632.755" x2="209.084" y2="688.755" gradientUnits="userSpaceOnUse"><stop stop-color="#fff"/><stop offset="1" stop-color="#F2F2F2"/></linearGradient><clipPath id="clip0"><path fill="#fff" transform="translate(211.768 516.846)" d="M0 0h58.495v87.331H0z"/></clipPath><clipPath id="clip1"><path fill="#fff" transform="translate(572.083 655.599)" d="M0 0h41.407v61.818H0z"/></clipPath><clipPath id="clip2"><path fill="#fff" transform="translate(316.219 271.765)" d="M0 0h52.927v79.018H0z"/></clipPath><clipPath id="clip3"><path fill="#fff" transform="translate(49.083 268.599)" d="M0 0h41.407v61.818H0z"/></clipPath></defs></svg>